<svg width="96" height="81" viewBox="0 0 96 81" fill="none" xmlns="http://www.w3.org/2000/svg">
<g clip-path="url(#clip0_228_1347)">
<mask id="mask0_228_1347" style="mask-type:luminance" maskUnits="userSpaceOnUse" x="32" y="23" width="38" height="30">
<path d="M57.7743 23.873C56.6236 26.5122 48.5445 34.4842 48.5445 34.4842L57.9181 34.3932V41.3823C49.1738 45.071 42.8088 39.2831 42.8088 39.2831L32.9258 45.0407C51.2355 61.4518 69.7191 46.879 69.7191 46.879V23.873H57.7743Z" fill="white"/>
</mask>
<g mask="url(#mask0_228_1347)">
<path d="M69.7132 23.873H32.9199V61.4579H69.7132V23.873Z" fill="url(#paint0_linear_228_1347)"/>
</g>
<mask id="mask1_228_1347" style="mask-type:luminance" maskUnits="userSpaceOnUse" x="26" y="5" width="36" height="42">
<path d="M38.5953 24.4981C39.4164 22.8418 42.3291 14.5058 56.1379 15.9073C56.1379 15.9073 53.7885 24.6558 40.2375 36.717C40.2315 36.7109 35.6286 31.8998 38.5953 24.4981ZM45.1041 6.28508C43.8754 6.59449 30.9477 9.74324 26.6565 23.8732C26.4647 24.6862 24.1213 35.6249 31.589 44.0094L28.2687 46.7032C28.5084 46.5758 40.663 39.9749 45.6794 34.7877C47.5973 33.0404 57.4744 23.9642 60.4831 16.2167C61.2502 13.7838 62.7486 8.40245 58.4034 6.64303C57.5223 6.38215 55.6944 5.52064 51.9665 5.52064C50.1565 5.51457 47.909 5.71478 45.1041 6.28508Z" fill="white"/>
</mask>
<g mask="url(#mask1_228_1347)">
<path d="M62.7484 5.51465H24.1211V46.7033H62.7484V5.51465Z" fill="url(#paint1_linear_228_1347)"/>
</g>
<mask id="mask2_228_1347" style="mask-type:luminance" maskUnits="userSpaceOnUse" x="63" y="3" width="7" height="12">
<path d="M63.0547 7.63818C63.0966 7.71099 63.1446 7.78986 63.1865 7.86266C63.2045 7.89299 63.2225 7.91726 63.2405 7.9476C63.2465 7.95366 63.2525 7.9658 63.2585 7.97793C63.2824 8.01433 63.3004 8.0568 63.3244 8.09927C63.3484 8.13567 63.3663 8.17814 63.3843 8.22061C63.4023 8.26308 63.4203 8.30555 63.4443 8.34802C63.4622 8.39049 63.4802 8.43295 63.4982 8.48149C63.5222 8.53609 63.5461 8.59676 63.5641 8.65743C63.6061 8.7727 63.642 8.88798 63.678 9.00325C63.7259 9.16099 63.7679 9.3248 63.8039 9.48861C63.8158 9.53107 63.8218 9.57961 63.8338 9.62208C63.8458 9.67668 63.8578 9.73735 63.8638 9.79802C63.8758 9.85262 63.8818 9.90116 63.8938 9.95576C63.9057 10.0104 63.9117 10.0589 63.9177 10.1135C63.9237 10.156 63.9297 10.1984 63.9357 10.2409C63.9597 10.4108 63.9777 10.5807 63.9956 10.7566C64.0016 10.8476 64.0136 10.9386 64.0196 11.0296C64.0376 11.2844 64.0496 11.5332 64.0556 11.7758C64.0556 11.8244 64.0616 11.8669 64.0616 11.9093C64.0975 13.5292 63.9117 14.9125 63.9117 14.9125L69.8452 3.34277L63.0547 7.63818Z" fill="white"/>
</mask>
<g mask="url(#mask2_228_1347)">
<path d="M57.4814 10.417L65.6924 0L75.4136 7.85065L67.2027 18.2676L57.4814 10.417Z" fill="url(#paint2_linear_228_1347)"/>
</g>
<mask id="mask3_228_1347" style="mask-type:luminance" maskUnits="userSpaceOnUse" x="57" y="3" width="13" height="5">
<path d="M57.7021 3.34863C57.8999 3.4275 58.0977 3.51244 58.2835 3.59131C58.3434 3.61558 58.4094 3.64591 58.4693 3.67625C58.6311 3.74905 58.787 3.82186 58.9308 3.90073C59.0087 3.93713 59.0866 3.9796 59.1585 4.02207C59.1645 4.02813 59.1705 4.02813 59.1765 4.0342C59.2664 4.08274 59.3563 4.13127 59.4402 4.17981C59.5241 4.22834 59.608 4.27688 59.6919 4.32541C59.8538 4.42248 60.0096 4.51956 60.1594 4.61663C60.1774 4.62876 60.1954 4.6409 60.2074 4.64696C60.2613 4.68336 60.3213 4.71977 60.3752 4.76223C60.4471 4.81077 60.513 4.85931 60.585 4.90784C60.591 4.91391 60.5969 4.91391 60.6029 4.91998C60.6629 4.96244 60.7288 5.01098 60.7827 5.05345C60.9985 5.21726 61.1963 5.38107 61.3761 5.54487C61.442 5.59948 61.5079 5.66015 61.5679 5.72081C61.6398 5.78755 61.6997 5.84822 61.7657 5.91496C61.8556 6.00596 61.9455 6.09697 62.0174 6.1819C62.1792 6.35785 62.317 6.52165 62.4309 6.67333C62.4609 6.70973 62.4908 6.74613 62.5148 6.7886C62.5688 6.8614 62.6227 6.93421 62.6647 7.00094C62.6886 7.03128 62.7066 7.06161 62.7246 7.08588C62.7426 7.11015 62.7546 7.13442 62.7665 7.15262C62.8385 7.26789 62.8924 7.35889 62.9344 7.43776C62.9763 7.5045 63.0123 7.57124 63.0542 7.63797L69.8387 3.34863H57.7021Z" fill="white"/>
</mask>
<g mask="url(#mask3_228_1347)">
<path d="M69.8387 3.34863H57.7021V7.63797H69.8387V3.34863Z" fill="url(#paint3_linear_228_1347)"/>
</g>
<path d="M37.1633 60.955C36.8936 59.0682 35.3772 58.4129 33.9688 58.328C33.2196 58.2673 32.848 58.5161 32.6802 59.3594C32.4105 60.7245 31.955 62.0653 31.5415 63.4121C31.104 64.7772 30.5466 66.0998 30.151 67.4831C30.0491 67.841 30.3188 68.5751 30.5646 68.66C30.9361 68.7875 31.4995 68.5751 31.8891 68.3446C32.1768 68.1747 32.3026 67.7561 32.5304 67.4649C32.8181 67.0887 33.0878 66.6883 33.4653 66.3971C34.5621 65.4749 35.3293 65.7479 35.9106 67.0705C36.1204 67.5741 36.45 68.0594 36.8636 68.4113C37.0913 68.5994 37.6307 68.6661 37.9184 68.5144C38.1881 68.3688 38.314 67.9077 38.4578 67.6772C38.0143 65.3171 37.4929 63.1573 37.1633 60.955ZM33.9089 64.4132C33.1597 64.1826 33.4534 63.6184 33.6391 63.1512C33.783 62.7326 34.5322 60.6759 34.9038 61.0703C34.9877 61.1552 35.0296 61.3251 35.0716 61.5981C35.1735 62.2473 35.2813 62.9207 35.2813 63.5941C35.2753 64.1644 34.4483 64.583 33.9089 64.4132Z" fill="#3357A2"/>
<path d="M28.7432 63.1153C28.5993 63.0546 28.4735 62.9697 28.3716 62.9029C28.851 62.1264 29.4264 61.4772 29.7381 60.6764C30.2175 59.5236 29.756 58.6197 28.5334 58.5165C26.9991 58.3891 25.4228 58.559 23.8646 58.6439C23.7207 58.6439 23.451 59.0019 23.451 59.2324C23.3491 60.9979 23.2832 62.7816 23.2233 64.5653C23.2053 65.2812 23.1214 66.0335 23.2652 66.7251C23.5529 68.1933 25.6506 69.3703 26.6635 68.5937C27.7603 67.7565 28.7791 66.7251 29.6062 65.6149C30.4453 64.4985 30.0497 63.637 28.7432 63.1153ZM25.8604 60.1121C26.5676 59.924 27.3767 59.6268 27.994 60.282C28.1199 60.4094 28.036 60.913 27.8681 61.0768C27.5565 61.4105 27.1609 61.7077 26.7474 61.914C25.6686 62.5207 25.3389 62.3144 25.1891 60.9676C25.4288 60.6824 25.5907 60.1728 25.8604 60.1121ZM28.2697 65.0264C27.982 65.5299 27.5864 65.991 27.107 66.3065C26.7953 66.537 26.2559 66.6402 25.8843 66.5613C25.6985 66.5188 25.6566 65.8879 25.5547 65.5299C25.6566 64.3105 26.9212 63.4732 27.958 64.0617C28.1858 64.2073 28.3716 64.814 28.2697 65.0264Z" fill="#3357A2"/>
<path d="M22.0244 60.7002C21.0055 57.9943 17.9369 57.4908 16.1149 59.7538C14.4787 61.7923 14.209 64.122 15.138 66.5366C16.1149 69.1212 19.0756 69.6247 20.9036 67.568C22.0244 66.3303 22.4379 64.8197 22.6057 63.1573C22.4199 62.3383 22.3181 61.495 22.0244 60.7002ZM19.5971 66.391C19.4293 66.749 18.8119 67.1494 18.4583 67.1069C18.0867 67.0887 17.5653 66.5791 17.4395 66.1847C16.918 64.3161 17.0259 62.4718 18.2066 60.8519C18.4583 60.5364 19.0337 60.1784 19.3453 60.2634C19.7409 60.3665 20.1545 60.8519 20.3223 61.2705C20.592 61.9197 20.6759 62.5324 20.6519 63.1149C20.592 64.2251 20.1185 65.299 19.5971 66.391Z" fill="#3357A2"/>
<path d="M4.46348 63.9099V63.9039C4.49345 63.8128 4.59534 63.7643 4.68524 63.7279C5.06881 63.5884 5.48235 63.5156 5.8899 63.5216C6.27348 63.5216 6.69301 63.6066 6.93275 63.9099C7.14851 64.1769 7.17248 64.5409 7.19046 64.8806C7.2444 66.003 7.2444 67.2528 6.50123 68.084C5.43441 69.2731 3.48057 68.9394 2.43772 67.902C0.328057 65.8149 0.561798 60.8218 2.93517 59.0806C3.5405 58.6317 4.43351 58.3769 5.18868 58.3829C6.86083 58.4011 8.16139 60.7248 7.42421 62.2476C7.32831 62.4417 6.8908 62.6298 6.67503 62.5752C6.08768 62.4174 5.50633 62.1748 5.32653 61.5438C5.18868 61.0524 5.35649 60.5246 4.67325 60.47C3.9001 60.4032 3.68434 61.0827 3.4566 61.6651C2.86325 63.2122 2.68345 66.1062 4.21775 67.2164C4.27169 67.2528 4.33163 67.2953 4.39755 67.2892C4.45749 67.2892 4.50543 67.2528 4.55338 67.2164C4.91298 66.9616 5.45239 66.6279 5.50633 66.1426C5.57225 65.5419 4.81709 64.6744 4.52342 64.1647C4.48745 64.0859 4.4455 63.9949 4.46348 63.9099Z" fill="#3357A2"/>
<path d="M10.9367 66.5426C11.4581 66.3545 11.8177 66.1482 12.1893 66.1179C12.6328 66.0876 13.1722 66.0876 13.5199 66.312C13.8974 66.5608 14.2331 67.0522 14.329 67.4951C14.3649 67.6771 13.7596 68.0897 13.388 68.2595C12.1714 68.8116 10.8828 68.9876 9.55225 68.8116C8.82106 68.7146 8.47944 68.3202 8.48543 67.5618C8.49742 64.9106 8.49142 62.2593 8.49142 59.602C8.49142 59.0317 8.4255 58.425 9.24059 58.334C10.0497 58.243 10.721 58.6434 10.8528 59.4564C10.9607 60.148 10.9667 60.8639 10.9487 61.5677C10.9127 62.7811 10.7929 63.9884 10.7569 65.2018C10.7269 65.6083 10.8528 66.0208 10.9367 66.5426Z" fill="#3357A2"/>
<path d="M41.6102 66.5544C42.1496 66.3724 42.5452 66.1236 42.9288 66.1358C43.4742 66.154 44.1155 66.2146 44.535 66.518C45.44 67.1732 45.3022 67.8103 44.2713 68.2167C42.9587 68.7385 41.6102 69.0236 40.1898 68.787C39.5245 68.6718 39.2129 68.2956 39.2129 67.6343C39.2189 64.8132 39.2129 61.992 39.2548 59.1709C39.2608 58.8979 39.5425 58.4125 39.7103 58.4065C40.2018 58.3943 40.8251 58.4247 41.1607 58.7219C41.4784 58.995 41.6282 59.6199 41.6342 60.0931C41.6342 61.7858 41.5323 63.4784 41.4904 65.1711C41.4784 65.6019 41.5623 66.0387 41.6102 66.5544Z" fill="#3357A2"/>
<path d="M65.0142 66.4089C64.4329 66.0327 63.8935 65.5474 63.3361 65.147C62.7967 64.7708 62.8986 64.4553 63.2522 63.97C63.9354 63.0903 64.6427 62.1863 65.0742 61.1792C65.6555 59.7959 65.0142 58.8252 63.5579 58.4915C61.7958 58.0911 60.1177 58.6371 58.4575 59.0375C58.2477 59.08 58.0619 59.5654 58.0619 59.8323C58.02 62.2045 58.044 64.5767 58.044 66.9488C57.8761 68.4838 58.044 68.7143 59.2666 68.8357C60.0158 68.9206 60.2855 68.6476 60.2435 67.8892C60.2255 67.4039 60.2016 66.9246 60.2615 66.4392C60.3035 66.2087 60.4892 65.875 60.699 65.8083C60.8429 65.7476 61.1785 65.9963 61.3223 66.1844C61.8198 66.7911 62.2573 67.4645 62.7727 68.053C63.3721 68.7447 63.7916 68.7447 64.4928 68.1804C64.7026 67.9924 64.9064 67.8043 65.1161 67.6162C65.5716 67.1673 65.6136 66.8093 65.0142 66.4089ZM61.1186 62.9689C60.6391 63.3026 60.3514 63.0721 60.2675 62.5078C60.0397 60.7848 60.5971 59.9476 62.2393 59.9476C62.3652 60.0325 62.8207 60.1599 62.9465 60.4329C63.0724 60.7241 63.0065 61.2702 62.8027 61.5007C62.2992 62.0649 61.7179 62.5442 61.1186 62.9689Z" fill="#3357A2"/>
<path d="M73.9929 67.0403C73.6393 65.0443 73.2677 63.0543 72.8721 61.0583C72.5185 59.2139 71.4397 58.3524 69.4739 58.3281C69.0783 58.3463 68.6049 58.3099 68.455 59.0198C68.1674 60.3242 67.8557 61.6043 67.4362 62.8601C67.0406 64.0553 66.5012 65.2141 66.0697 66.4093C65.5902 67.7744 65.6741 68.4903 66.2375 68.7208C66.9028 69.0363 67.3762 68.6359 68.2273 67.4589C68.6648 66.8704 69.2641 66.3669 69.8875 66.0089C70.5707 65.6085 71.1341 65.9664 71.4457 66.6823C71.6135 67.0828 71.7574 67.5196 72.0031 67.9018C72.3567 68.466 72.9141 68.824 73.5794 68.551C74.2207 68.2779 74.1008 67.5863 73.9929 67.0403ZM69.5338 64.4133C68.8926 64.1403 69.1203 63.6367 69.3061 63.1938C69.4739 62.7752 69.6777 62.3566 69.8635 61.9562C70.0073 61.6407 70.1332 61.034 70.4868 61.0522C70.5707 61.0522 70.6306 61.0704 70.6726 61.1129C70.9603 61.3252 70.8164 62.035 70.8404 62.3081C70.8823 62.7509 70.9243 63.212 70.9243 63.6731C70.9243 64.1827 70.0313 64.6256 69.5338 64.4133Z" fill="#3357A2"/>
<path d="M77.8162 64.8985C77.9421 64.6012 78.1099 64.316 78.1878 64.0066C78.5414 62.6416 78.8591 61.2644 79.2007 59.8932C79.5003 58.692 80.1596 58.1156 80.9268 58.3583C81.6879 58.601 82.0475 59.602 81.6879 60.6759C81.4182 61.4767 81.0047 62.229 80.747 63.0359C80.2735 64.5163 79.848 66.0087 79.4464 67.5073C79.2187 68.3506 78.7692 68.8541 77.8701 68.8602C77.0311 68.8663 76.3119 68.66 76.0362 67.7257C75.335 65.3171 74.6158 62.9146 73.9505 60.4999C73.8546 60.148 73.9265 59.7052 74.0524 59.3533C74.2801 58.7284 74.7896 58.419 75.4488 58.5342C76.0841 58.6434 76.3119 59.0863 76.4138 59.7355C76.6415 61.2401 76.9652 62.7326 77.2648 64.225C77.3128 64.4556 77.4626 64.6679 77.5585 64.8863C77.6484 64.8803 77.7323 64.8924 77.8162 64.8985Z" fill="#3357A2"/>
<path d="M84.7452 62.9391C85.4704 62.9391 86.1716 62.8602 86.8369 62.9755C87.1245 63.024 87.5621 63.4911 87.5441 63.7399C87.5201 64.0796 87.1905 64.5043 86.8728 64.6863C86.4773 64.9108 85.9439 64.8683 85.5123 65.0504C85.2306 65.1717 84.8531 65.4629 84.8231 65.7177C84.7692 66.1849 85.1527 66.3608 85.6142 66.3426C86.1716 66.3184 86.747 66.2577 87.2864 66.3608C87.598 66.4215 88.0715 66.743 88.0895 66.9857C88.1194 67.3012 87.8497 67.8108 87.5681 67.9443C86.8728 68.284 86.0997 68.4782 85.3505 68.6966C83.8881 69.1152 82.8812 68.4903 82.5876 66.9614C82.4797 66.4094 82.4258 65.8391 82.4198 65.2809C82.3958 63.3577 82.4138 61.4284 82.3898 59.5052C82.3838 58.9409 82.5696 58.6922 83.1509 58.6618C84.1518 58.6012 85.1467 58.401 86.1476 58.3888C86.6691 58.3828 87.2624 58.5466 87.6999 58.8317C87.9576 59.0016 88.1015 59.5719 88.0475 59.9238C88.0176 60.1422 87.5381 60.3424 87.2264 60.4516C86.9148 60.5547 86.5612 60.5183 86.2315 60.5729C84.6193 60.8096 84.3976 61.1614 84.7452 62.9391Z" fill="#3357A2"/>
<path d="M52.4826 63.6552C52.4826 63.4549 52.4886 63.2608 52.4826 63.0606C52.4646 62.5267 52.6264 61.8411 52.3627 61.5014C52.141 61.2162 51.3798 61.4225 50.9243 61.2405C50.5048 61.0767 49.9414 60.7309 49.8695 60.379C49.7976 60.021 50.1632 59.2991 50.4928 59.1777C51.5836 58.7955 52.7343 58.5104 53.8851 58.383C54.7841 58.2798 55.719 58.4497 56.636 58.5225C57.1035 58.5589 57.511 58.7591 57.3612 59.3112C57.2114 59.8572 57.4691 60.7309 56.4143 60.6823C54.7241 60.6035 54.4664 60.8765 54.5683 62.5752C54.6702 64.2679 54.802 65.9606 54.8919 67.6533C54.9399 68.5087 54.6162 68.8545 53.7772 68.8849C53.052 68.9091 52.6984 68.4966 52.6564 67.7989C52.5725 66.4156 52.5066 65.0384 52.4287 63.6552C52.4586 63.6552 52.4706 63.6552 52.4826 63.6552Z" fill="#3357A2"/>
<path d="M91.457 66.5976C92.0264 66.3853 92.362 66.1547 92.6917 66.1608C93.267 66.179 93.9443 66.1911 94.3938 66.4884C95.2988 67.089 95.155 67.7564 94.166 68.2053C92.8775 68.7938 91.523 68.8666 90.1445 68.7878C89.4732 68.7514 89.1196 68.3934 89.1196 67.7079C89.1196 64.8503 89.1136 61.9988 89.1436 59.1474C89.1436 58.8986 89.3893 58.4679 89.5631 58.4497C90.0007 58.3951 90.564 58.3769 90.8877 58.6135C91.2173 58.8501 91.475 59.4082 91.493 59.8269C91.535 61.1798 91.4331 62.5388 91.4091 63.8917C91.3971 64.7411 91.4391 65.5965 91.457 66.5976Z" fill="#3357A2"/>
<path d="M50.7021 79.259V73.0586H52.7039C53.3692 73.0586 53.8666 73.1981 54.2023 73.4772C54.5379 73.7563 54.7057 74.1688 54.7057 74.7088C54.7057 75 54.6218 75.2548 54.46 75.4793C54.2982 75.7038 54.0764 75.8737 53.7947 75.995C54.1244 76.086 54.3881 76.268 54.5799 76.5289C54.7716 76.7898 54.8675 77.1053 54.8675 77.4693C54.8675 78.0274 54.6877 78.4643 54.3341 78.7797C53.9805 79.0952 53.4771 79.259 52.8238 79.259H50.7021ZM51.5053 75.7038H52.7279C53.0815 75.7038 53.3632 75.6128 53.573 75.4368C53.7827 75.2548 53.8906 75.0122 53.8906 74.7088C53.8906 74.3691 53.7947 74.1203 53.5969 73.9626C53.3992 73.8048 53.0995 73.732 52.6979 73.732H51.5053V75.7038ZM51.5053 76.359V78.5917H52.8358C53.2134 78.5917 53.507 78.4946 53.7228 78.2944C53.9386 78.0942 54.0464 77.8272 54.0464 77.4814C54.0464 76.7352 53.6449 76.359 52.8418 76.359H51.5053Z" fill="#36393B"/>
<path d="M58.7512 79.2589C58.7093 79.1679 58.6673 79.0041 58.6433 78.7735C58.2837 79.1558 57.8462 79.3438 57.3488 79.3438C56.8993 79.3438 56.5337 79.2164 56.246 78.9616C55.9583 78.7068 55.8145 78.3792 55.8145 77.9848C55.8145 77.5055 55.9943 77.1355 56.3539 76.8685C56.7135 76.6016 57.2229 76.4742 57.8762 76.4742H58.6313V76.1101C58.6313 75.8371 58.5474 75.6187 58.3856 75.4549C58.2238 75.2911 57.9841 75.2122 57.6664 75.2122C57.3907 75.2122 57.157 75.285 56.9712 75.4246C56.7854 75.5641 56.6895 75.7401 56.6895 75.9403H55.9044C55.9044 75.7097 55.9823 75.4913 56.1441 75.2729C56.3059 75.0545 56.5217 74.8907 56.7974 74.7633C57.0731 74.6359 57.3787 74.5752 57.7084 74.5752C58.2298 74.5752 58.6433 74.7087 58.943 74.9756C59.2427 75.2426 59.3925 75.6066 59.4045 76.0737V78.1911C59.4045 78.6158 59.4584 78.9495 59.5663 79.1982V79.265H58.7512V79.2589ZM57.4566 78.6583C57.7024 78.6583 57.9301 78.5915 58.1519 78.4641C58.3736 78.3367 58.5295 78.1729 58.6253 77.9666V77.0202H58.014C57.0611 77.0202 56.5816 77.3053 56.5816 77.8696C56.5816 78.1183 56.6655 78.3124 56.8273 78.452C56.9951 78.5855 57.2049 78.6583 57.4566 78.6583Z" fill="#36393B"/>
<path d="M61.3583 74.6543L61.3822 75.2306C61.7299 74.7877 62.1854 74.5693 62.7427 74.5693C63.7017 74.5693 64.1871 75.1214 64.1991 76.2196V79.2652H63.42V76.2196C63.42 75.8859 63.3421 75.6432 63.1982 75.4794C63.0484 75.3216 62.8207 75.2428 62.509 75.2428C62.2573 75.2428 62.0355 75.3095 61.8437 75.449C61.6519 75.5825 61.5021 75.7645 61.4002 75.9829V79.2652H60.6211V74.6603H61.3583V74.6543Z" fill="#36393B"/>
<path d="M65.1943 76.9173C65.1943 76.2014 65.3562 75.625 65.6858 75.2064C66.0154 74.7817 66.447 74.5693 66.9923 74.5693C67.5497 74.5693 67.9813 74.7695 68.2929 75.1639L68.3289 74.6543H69.0421V79.1499C69.0421 79.7445 68.8683 80.2177 68.5207 80.5574C68.173 80.9032 67.6996 81.0731 67.1122 81.0731C66.7826 81.0731 66.4649 81.0003 66.1473 80.8608C65.8356 80.7212 65.5959 80.5271 65.4281 80.2783L65.8296 79.8051C66.1653 80.2237 66.5728 80.43 67.0523 80.43C67.4299 80.43 67.7235 80.3208 67.9393 80.1085C68.1491 79.8901 68.2569 79.5867 68.2569 79.1984V78.8041C67.9453 79.1681 67.5198 79.3501 66.9804 79.3501C66.4469 79.3501 66.0154 79.1317 65.6858 78.7009C65.3562 78.2581 65.1943 77.6635 65.1943 76.9173ZM65.9735 77.0083C65.9735 77.53 66.0814 77.9365 66.2911 78.2338C66.5009 78.5311 66.7946 78.6767 67.1721 78.6767C67.6636 78.6767 68.0232 78.4522 68.251 77.9972V75.8919C68.0112 75.4551 67.6576 75.2306 67.1781 75.2306C66.8006 75.2306 66.5009 75.3762 66.2911 75.6796C66.0814 75.9769 65.9735 76.4198 65.9735 77.0083Z" fill="#36393B"/>
<path d="M71.0555 79.2589H70.2764V72.7188H71.0555V79.2589Z" fill="#36393B"/>
<path d="M75.1067 79.2589C75.0647 79.1679 75.0288 79.0041 74.9988 78.7735C74.6392 79.1558 74.2077 79.3438 73.7042 79.3438C73.2547 79.3438 72.8891 79.2164 72.6014 78.9616C72.3138 78.7068 72.1699 78.3792 72.1699 77.9848C72.1699 77.5055 72.3497 77.1355 72.7093 76.8685C73.0689 76.6016 73.5784 76.4742 74.2316 76.4742H74.9868V76.1101C74.9868 75.8371 74.9089 75.6187 74.7411 75.4549C74.5793 75.2911 74.3395 75.2122 74.0219 75.2122C73.7462 75.2122 73.5124 75.285 73.3206 75.4246C73.1349 75.5641 73.039 75.7401 73.039 75.9403H72.2538C72.2538 75.7097 72.3317 75.4913 72.4936 75.2729C72.6554 75.0605 72.8711 74.8907 73.1468 74.7633C73.4225 74.6359 73.7282 74.5752 74.0578 74.5752C74.5793 74.5752 74.9928 74.7087 75.2925 74.9756C75.5921 75.2426 75.742 75.6066 75.754 76.0737V78.1911C75.754 78.6158 75.8079 78.9495 75.9158 79.1982V79.265H75.1067V79.2589ZM73.8181 78.6583C74.0638 78.6583 74.2916 78.5915 74.5133 78.4641C74.7291 78.3367 74.8909 78.1729 74.9868 77.9666V77.0202H74.3755C73.4225 77.0202 72.9431 77.3053 72.9431 77.8696C72.9431 78.1183 73.021 78.3124 73.1888 78.452C73.3506 78.5855 73.5604 78.6583 73.8181 78.6583Z" fill="#36393B"/>
<path d="M76.791 76.9171C76.791 76.2133 76.9588 75.643 77.2885 75.2123C77.6181 74.7815 78.0496 74.5692 78.589 74.5692C79.1224 74.5692 79.542 74.7512 79.8536 75.1213V72.7188H80.6328V79.2589H79.9196L79.8836 78.7675C79.5719 79.1558 79.1404 79.3439 78.583 79.3439C78.0556 79.3439 77.6241 79.1255 77.2945 78.6886C76.9648 78.2518 76.797 77.6815 76.797 76.9778V76.9171H76.791ZM77.5702 77.0081C77.5702 77.5299 77.678 77.9363 77.8878 78.2336C78.0976 78.5309 78.3972 78.6765 78.7688 78.6765C79.2603 78.6765 79.6199 78.452 79.8476 78.0031V75.8857C79.6139 75.4489 79.2603 75.2365 78.7748 75.2365C78.3912 75.2365 78.0976 75.3821 77.8818 75.6855C77.678 75.9767 77.5702 76.4196 77.5702 77.0081Z" fill="#36393B"/>
<path d="M83.7253 79.344C83.108 79.344 82.6046 79.1378 82.221 78.7313C81.8314 78.3248 81.6396 77.7727 81.6396 77.0871V76.9415C81.6396 76.4865 81.7236 76.0739 81.8974 75.716C82.0712 75.358 82.3109 75.0729 82.6226 74.8727C82.9342 74.6725 83.2698 74.5693 83.6294 74.5693C84.2228 74.5693 84.6783 74.7695 85.0079 75.1639C85.3376 75.5582 85.4994 76.1225 85.4994 76.8566V77.1842H82.4188C82.4308 77.6392 82.5626 78.0032 82.8143 78.2823C83.0661 78.5614 83.3837 78.7009 83.7733 78.7009C84.049 78.7009 84.2827 78.6463 84.4685 78.5311C84.6603 78.4158 84.8281 78.2641 84.966 78.0821L85.4394 78.4583C85.0619 79.0468 84.4925 79.344 83.7253 79.344ZM83.6294 75.2124C83.3178 75.2124 83.0541 75.3277 82.8383 75.5582C82.6226 75.7888 82.4907 76.1164 82.4428 76.529H84.7202V76.4683C84.6963 76.0679 84.5884 75.7585 84.4026 75.54C84.2108 75.3216 83.9531 75.2124 83.6294 75.2124Z" fill="#36393B"/>
<path d="M89.054 78.0338C89.054 77.8214 88.9761 77.6576 88.8143 77.5363C88.6585 77.421 88.3828 77.3179 87.9872 77.2329C87.5916 77.148 87.28 77.0449 87.0462 76.9296C86.8125 76.8083 86.6447 76.6687 86.5368 76.5049C86.4229 76.3411 86.369 76.147 86.369 75.9164C86.369 75.5403 86.5248 75.2187 86.8425 74.9578C87.1601 74.697 87.5617 74.5635 88.0531 74.5635C88.5686 74.5635 88.9881 74.6969 89.3057 74.97C89.6294 75.2369 89.7852 75.5827 89.7852 76.0013H89.0001C89.0001 75.7829 88.9102 75.6009 88.7304 75.4432C88.5506 75.2854 88.3228 75.2066 88.0471 75.2066C87.7654 75.2066 87.5437 75.2672 87.3819 75.3947C87.22 75.5221 87.1421 75.6859 87.1421 75.8861C87.1421 76.0742 87.2141 76.2198 87.3639 76.3168C87.5137 76.4139 87.7834 76.5049 88.167 76.5959C88.5566 76.6869 88.8682 76.7901 89.108 76.9114C89.3477 77.0327 89.5275 77.1783 89.6414 77.3543C89.7612 77.5242 89.8152 77.7365 89.8152 77.9792C89.8152 78.3917 89.6534 78.7193 89.3297 78.9681C89.0061 79.2168 88.5865 79.3382 88.0651 79.3382C87.6995 79.3382 87.3759 79.2714 87.1002 79.144C86.8185 79.0106 86.6027 78.8285 86.4409 78.598C86.2851 78.3614 86.2012 78.1126 86.2012 77.8396H86.9803C86.9923 78.1005 87.1002 78.3129 87.292 78.4706C87.4897 78.6283 87.7475 78.7011 88.0651 78.7011C88.3588 78.7011 88.5985 78.6405 88.7723 78.5191C88.9641 78.3978 89.054 78.2401 89.054 78.0338Z" fill="#36393B"/>
<path d="M91.619 75.2062C91.9606 74.7754 92.4101 74.5631 92.9675 74.5631C93.9264 74.5631 94.4119 75.1152 94.4239 76.2133V79.2589H93.6447V76.2133C93.6447 75.8796 93.5668 75.637 93.417 75.4732C93.2732 75.3154 93.0394 75.2365 92.7278 75.2365C92.476 75.2365 92.2543 75.3033 92.0625 75.4428C91.8707 75.5763 91.7209 75.7583 91.619 75.9767V79.2589H90.8398V72.7188H91.619V75.2062Z" fill="#36393B"/>
</g>
<defs>
<linearGradient id="paint0_linear_228_1347" x1="32.8953" y1="42.667" x2="69.6916" y2="42.667" gradientUnits="userSpaceOnUse">
<stop stop-color="#63C3DF"/>
<stop offset="0.3555" stop-color="#63C3DF"/>
<stop offset="0.3868" stop-color="#5FBADB"/>
<stop offset="0.5472" stop-color="#4B93C7"/>
<stop offset="0.6751" stop-color="#3F7BBB"/>
<stop offset="0.7536" stop-color="#3A72B7"/>
<stop offset="1" stop-color="#3A72B7"/>
</linearGradient>
<linearGradient id="paint1_linear_228_1347" x1="26.1752" y1="26.1162" x2="61.3735" y2="26.1162" gradientUnits="userSpaceOnUse">
<stop stop-color="#EA6624"/>
<stop offset="0.6295" stop-color="#F08D1A"/>
<stop offset="1" stop-color="#F08D1A"/>
</linearGradient>
<linearGradient id="paint2_linear_228_1347" x1="64.407" y1="11.7608" x2="70.4535" y2="4.27509" gradientUnits="userSpaceOnUse">
<stop stop-color="#EA6624"/>
<stop offset="0.3705" stop-color="#EA6624"/>
<stop offset="0.583" stop-color="#EB6F22"/>
<stop offset="0.928" stop-color="#EF871C"/>
<stop offset="1" stop-color="#F08D1A"/>
</linearGradient>
<linearGradient id="paint3_linear_228_1347" x1="57.6578" y1="5.48305" x2="69.7978" y2="5.48305" gradientUnits="userSpaceOnUse">
<stop stop-color="#63C3DF"/>
<stop offset="0.3555" stop-color="#63C3DF"/>
<stop offset="0.3868" stop-color="#5FBADB"/>
<stop offset="0.5472" stop-color="#4B93C7"/>
<stop offset="0.6751" stop-color="#3F7BBB"/>
<stop offset="0.7536" stop-color="#3A72B7"/>
<stop offset="1" stop-color="#3A72B7"/>
</linearGradient>
<clipPath id="clip0_228_1347">
<rect width="96" height="81" fill="white"/>
</clipPath>
</defs>
</svg>
