<svg width="95" height="81" viewBox="0 0 95 81" fill="none" xmlns="http://www.w3.org/2000/svg">
<g clip-path="url(#clip0_149_800)">
<mask id="mask0_149_800" style="mask-type:luminance" maskUnits="userSpaceOnUse" x="31" y="23" width="38" height="30">
<path d="M56.275 23.875C55.1243 26.5141 47.0452 34.4861 47.0452 34.4861L56.4189 34.3951V41.3843C47.6745 45.073 41.3096 39.2851 41.3096 39.2851L31.4265 45.0426C49.7363 61.4538 68.2198 46.8809 68.2198 46.8809V23.875H56.275Z" fill="white"/>
</mask>
<g mask="url(#mask0_149_800)">
<path d="M68.2142 23.875H31.4209V61.4598H68.2142V23.875Z" fill="url(#paint0_linear_149_800)"/>
</g>
<mask id="mask1_149_800" style="mask-type:luminance" maskUnits="userSpaceOnUse" x="24" y="5" width="36" height="42">
<path d="M37.0963 24.501C37.9173 22.8447 40.8301 14.5087 54.6388 15.9102C54.6388 15.9102 52.2894 24.6588 38.7384 36.7199C38.7324 36.7138 34.1295 31.9027 37.0963 24.501ZM43.6051 6.28801C42.3764 6.59742 29.4487 9.74617 25.1575 23.8761C24.9657 24.6891 22.6223 35.6278 30.09 44.0124L26.7697 46.7061C27.0094 46.5787 39.164 39.9778 44.1804 34.7906C46.0983 33.0433 55.9754 23.9671 58.984 16.2196C59.7512 13.7868 61.2495 8.40538 56.9043 6.64596C56.0233 6.38508 54.1953 5.52357 50.4675 5.52357C48.6575 5.5175 46.4099 5.71771 43.6051 6.28801Z" fill="white"/>
</mask>
<g mask="url(#mask1_149_800)">
<path d="M61.2496 5.51562H22.6223V46.7042H61.2496V5.51562Z" fill="url(#paint1_linear_149_800)"/>
</g>
<mask id="mask2_149_800" style="mask-type:luminance" maskUnits="userSpaceOnUse" x="61" y="3" width="8" height="12">
<path d="M61.5552 7.63916C61.5971 7.71196 61.6451 7.79083 61.687 7.86364C61.705 7.89397 61.723 7.91824 61.741 7.94857C61.747 7.95464 61.753 7.96677 61.7589 7.97891C61.7829 8.01531 61.8009 8.05778 61.8249 8.10025C61.8488 8.13665 61.8668 8.17912 61.8848 8.22159C61.9028 8.26406 61.9208 8.30652 61.9447 8.34899C61.9627 8.39146 61.9807 8.43393 61.9987 8.48247C62.0227 8.53707 62.0466 8.59774 62.0646 8.65841C62.1066 8.77368 62.1425 8.88895 62.1785 9.00422C62.2264 9.16197 62.2684 9.32577 62.3043 9.48958C62.3163 9.53205 62.3223 9.58059 62.3343 9.62305C62.3463 9.67766 62.3583 9.73833 62.3643 9.799C62.3763 9.8536 62.3823 9.90213 62.3942 9.95674C62.4062 10.0113 62.4122 10.0599 62.4182 10.1145C62.4242 10.1569 62.4302 10.1994 62.4362 10.2419C62.4602 10.4118 62.4782 10.5816 62.4961 10.7576C62.5021 10.8486 62.5141 10.9396 62.5201 11.0306C62.5381 11.2854 62.5501 11.5341 62.5561 11.7768C62.5561 11.8254 62.5621 11.8678 62.5621 11.9103C62.598 13.5302 62.4122 14.9134 62.4122 14.9134L68.3457 3.34375L61.5552 7.63916Z" fill="white"/>
</mask>
<g mask="url(#mask2_149_800)">
<path d="M55.9817 10.417L64.1926 0L73.9139 7.85065L65.7029 18.2676L55.9817 10.417Z" fill="url(#paint2_linear_149_800)"/>
</g>
<mask id="mask3_149_800" style="mask-type:luminance" maskUnits="userSpaceOnUse" x="56" y="3" width="13" height="5">
<path d="M56.2034 3.35156C56.4012 3.43043 56.5989 3.51537 56.7847 3.59424C56.8447 3.61851 56.9106 3.64884 56.9705 3.67918C57.1323 3.75198 57.2882 3.82479 57.432 3.90366C57.5099 3.94006 57.5878 3.98253 57.6598 4.025C57.6658 4.03106 57.6717 4.03106 57.6777 4.03713C57.7676 4.08566 57.8575 4.1342 57.9414 4.18274C58.0254 4.23127 58.1093 4.27981 58.1932 4.32834C58.355 4.42541 58.5108 4.52249 58.6606 4.61956C58.6786 4.63169 58.6966 4.64383 58.7086 4.64989C58.7625 4.68629 58.8225 4.7227 58.8764 4.76516C58.9483 4.8137 59.0143 4.86224 59.0862 4.91077C59.0922 4.91684 59.0982 4.91684 59.1042 4.92291C59.1641 4.96537 59.23 5.01391 59.284 5.05638C59.4997 5.22019 59.6975 5.38399 59.8773 5.5478C59.9432 5.60241 60.0092 5.66307 60.0691 5.72374C60.141 5.79048 60.2009 5.85115 60.2669 5.91789C60.3568 6.00889 60.4467 6.0999 60.5186 6.18483C60.6804 6.36078 60.8183 6.52458 60.9321 6.67626C60.9621 6.71266 60.9921 6.74906 61.016 6.79153C61.07 6.86433 61.1239 6.93714 61.1659 7.00387C61.1899 7.03421 61.2078 7.06454 61.2258 7.08881C61.2438 7.11308 61.2558 7.13735 61.2678 7.15555C61.3397 7.27082 61.3936 7.36182 61.4356 7.44069C61.4775 7.50743 61.5135 7.57417 61.5554 7.6409L68.3399 3.35156H56.2034Z" fill="white"/>
</mask>
<g mask="url(#mask3_149_800)">
<path d="M68.3399 3.35156H56.2034V7.6409H68.3399V3.35156Z" fill="url(#paint3_linear_149_800)"/>
</g>
<path d="M35.6637 60.956C35.394 59.0692 33.8777 58.4139 32.4693 58.329C31.7201 58.2683 31.3485 58.5171 31.1807 59.3604C30.911 60.7254 30.4555 62.0662 30.042 63.4131C29.6044 64.7782 29.0471 66.1008 28.6515 67.484C28.5496 67.842 28.8193 68.5761 29.065 68.661C29.4366 68.7884 30 68.5761 30.3896 68.3455C30.6773 68.1757 30.8031 67.757 31.0309 67.4658C31.3185 67.0897 31.5882 66.6893 31.9658 66.398C33.0626 65.4759 33.8298 65.7489 34.4111 67.0715C34.6209 67.575 34.9505 68.0604 35.3641 68.4123C35.5918 68.6004 36.1312 68.6671 36.4189 68.5154C36.6886 68.3698 36.8145 67.9087 36.9583 67.6782C36.5148 65.3181 35.9934 63.1583 35.6637 60.956ZM32.4093 64.4141C31.6602 64.1836 31.9538 63.6194 32.1396 63.1522C32.2835 62.7336 33.0327 60.6769 33.4042 61.0713C33.4881 61.1562 33.5301 61.3261 33.5721 61.5991C33.6739 62.2482 33.7818 62.9217 33.7818 63.5951C33.7758 64.1654 32.9487 64.584 32.4093 64.4141Z" fill="#3357A2"/>
<path d="M27.2432 63.1172C27.0993 63.0566 26.9735 62.9716 26.8716 62.9049C27.351 62.1283 27.9264 61.4791 28.2381 60.6783C28.7175 59.5256 28.256 58.6216 27.0334 58.5185C25.4991 58.3911 23.9228 58.5609 22.3646 58.6459C22.2207 58.6459 21.951 59.0038 21.951 59.2344C21.8491 60.9999 21.7832 62.7835 21.7233 64.5672C21.7053 65.2831 21.6214 66.0354 21.7652 66.7271C22.0529 68.1953 24.1506 69.3723 25.1635 68.5957C26.2603 67.7585 27.2791 66.7271 28.1062 65.6168C28.9453 64.5005 28.5497 63.639 27.2432 63.1172ZM24.3604 60.1141C25.0676 59.926 25.8767 59.6287 26.494 60.284C26.6199 60.4114 26.536 60.9149 26.3681 61.0787C26.0565 61.4124 25.6609 61.7097 25.2474 61.916C24.1686 62.5227 23.8389 62.3164 23.6891 60.9695C23.9288 60.6844 24.0907 60.1747 24.3604 60.1141ZM26.7697 65.0283C26.482 65.5319 26.0864 65.993 25.607 66.3084C25.2953 66.539 24.7559 66.6421 24.3843 66.5633C24.1985 66.5208 24.1566 65.8898 24.0547 65.5319C24.1566 64.3124 25.4212 63.4752 26.458 64.0637C26.6858 64.2093 26.8716 64.816 26.7697 65.0283Z" fill="#3357A2"/>
<path d="M20.5246 60.7002C19.5058 57.9943 16.4371 57.4908 14.6152 59.7538C12.979 61.7923 12.7093 64.122 13.6382 66.5366C14.6152 69.1212 17.5759 69.6247 19.4039 67.568C20.5246 66.3303 20.9382 64.8197 21.106 63.1573C20.9202 62.3383 20.8183 61.495 20.5246 60.7002ZM18.0973 66.391C17.9295 66.749 17.3122 67.1494 16.9586 67.1069C16.587 67.0887 16.0656 66.5791 15.9397 66.1847C15.4183 64.3161 15.5262 62.4718 16.7068 60.8519C16.9586 60.5364 17.5339 60.1784 17.8456 60.2634C18.2412 60.3665 18.6547 60.8519 18.8225 61.2705C19.0922 61.9197 19.1761 62.5324 19.1521 63.1149C19.0922 64.2251 18.6187 65.299 18.0973 66.391Z" fill="#3357A2"/>
<path d="M2.96397 63.9099V63.9039C2.99394 63.8128 3.09582 63.7643 3.18572 63.7279C3.5693 63.5884 3.98284 63.5156 4.39039 63.5216C4.77397 63.5216 5.1935 63.6066 5.43324 63.9099C5.649 64.1769 5.67297 64.5409 5.69095 64.8806C5.74489 66.003 5.74489 67.2528 5.00172 68.084C3.9349 69.2731 1.98106 68.9394 0.938211 67.902C-1.17146 65.8149 -0.937714 60.8218 1.43566 59.0806C2.04099 58.6317 2.934 58.3769 3.68917 58.3829C5.36132 58.4011 6.66188 60.7248 5.92469 62.2476C5.8288 62.4417 5.39128 62.6298 5.17552 62.5752C4.58817 62.4174 4.00682 62.1748 3.82701 61.5438C3.68917 61.0524 3.85698 60.5246 3.17374 60.47C2.40059 60.4032 2.18483 61.0827 1.95708 61.6651C1.36374 63.2122 1.18394 66.1062 2.71824 67.2164C2.77218 67.2528 2.83212 67.2953 2.89804 67.2892C2.95798 67.2892 3.00592 67.2528 3.05387 67.2164C3.41347 66.9616 3.95288 66.6279 4.00682 66.1426C4.07274 65.5419 3.31758 64.6744 3.0239 64.1647C2.98794 64.0859 2.94599 63.9949 2.96397 63.9099Z" fill="#3357A2"/>
<path d="M9.43696 66.5455C9.95838 66.3574 10.318 66.1512 10.6896 66.1208C11.1331 66.0905 11.6725 66.0905 12.0201 66.315C12.3977 66.5637 12.7333 67.0551 12.8292 67.498C12.8652 67.68 12.2598 68.0926 11.8882 68.2625C10.6716 68.8146 9.38302 68.9905 8.05249 68.8146C7.3213 68.7175 6.97968 68.3231 6.98567 67.5648C6.99766 64.9135 6.99167 62.2622 6.99167 59.6049C6.99167 59.0346 6.92574 58.4279 7.74084 58.3369C8.54994 58.2459 9.2212 58.6463 9.35305 59.4593C9.46094 60.1509 9.46693 60.8668 9.44895 61.5706C9.41299 62.784 9.29312 63.9913 9.25716 65.2047C9.22719 65.6112 9.35305 66.0238 9.43696 66.5455Z" fill="#3357A2"/>
<path d="M40.111 66.5563C40.6504 66.3743 41.0459 66.1256 41.4295 66.1377C41.9749 66.1559 42.6162 66.2166 43.0357 66.5199C43.9407 67.1752 43.8029 67.8122 42.772 68.2187C41.4595 68.7404 40.111 69.0256 38.6905 68.789C38.0253 68.6737 37.7136 68.2976 37.7136 67.6363C37.7196 64.8151 37.7136 61.994 37.7556 59.1729C37.7616 58.8998 38.0433 58.4145 38.2111 58.4084C38.7025 58.3963 39.3258 58.4266 39.6615 58.7239C39.9791 58.9969 40.129 59.6218 40.1349 60.095C40.1349 61.7877 40.0331 63.4804 39.9911 65.1731C39.9791 65.6038 40.063 66.0407 40.111 66.5563Z" fill="#3357A2"/>
<path d="M63.515 66.4089C62.9336 66.0327 62.3942 65.5474 61.8368 65.147C61.2974 64.7708 61.3993 64.4553 61.7529 63.97C62.4362 63.0903 63.1434 62.1863 63.5749 61.1792C64.1563 59.7959 63.515 58.8252 62.0586 58.4915C60.2965 58.0911 58.6184 58.6371 56.9582 59.0375C56.7485 59.08 56.5627 59.5654 56.5627 59.8323C56.5207 62.2045 56.5447 64.5767 56.5447 66.9488C56.3769 68.4838 56.5447 68.7143 57.7673 68.8357C58.5165 68.9206 58.7862 68.6476 58.7443 67.8892C58.7263 67.4039 58.7023 66.9246 58.7622 66.4392C58.8042 66.2087 58.99 65.875 59.1997 65.8083C59.3436 65.7476 59.6792 65.9963 59.8231 66.1844C60.3205 66.7911 60.758 67.4645 61.2735 68.053C61.8728 68.7447 62.2923 68.7447 62.9936 68.1804C63.2033 67.9924 63.4071 67.8043 63.6169 67.6162C64.0724 67.1673 64.1143 66.8093 63.515 66.4089ZM59.6193 62.9689C59.1398 63.3026 58.8521 63.0721 58.7682 62.5078C58.5405 60.7848 59.0979 59.9476 60.74 59.9476C60.8659 60.0325 61.3214 60.1599 61.4473 60.4329C61.5731 60.7241 61.5072 61.2702 61.3034 61.5007C60.8 62.0649 60.2186 62.5442 59.6193 62.9689Z" fill="#3357A2"/>
<path d="M72.4932 67.0403C72.1395 65.0443 71.768 63.0543 71.3724 61.0583C71.0188 59.2139 69.94 58.3524 67.9742 58.3281C67.5786 58.3463 67.1051 58.3099 66.9553 59.0198C66.6676 60.3242 66.3559 61.6043 65.9364 62.8601C65.5408 64.0553 65.0014 65.2141 64.5699 66.4093C64.0904 67.7744 64.1744 68.4903 64.7377 68.7208C65.403 69.0363 65.8765 68.6359 66.7275 67.4589C67.165 66.8704 67.7644 66.3669 68.3877 66.0089C69.0709 65.6085 69.6343 65.9664 69.946 66.6823C70.1138 67.0828 70.2576 67.5196 70.5034 67.9018C70.857 68.466 71.4143 68.824 72.0796 68.551C72.7209 68.2779 72.601 67.5863 72.4932 67.0403ZM68.0341 64.4133C67.3928 64.1403 67.6205 63.6367 67.8063 63.1938C67.9742 62.7752 68.1779 62.3566 68.3637 61.9562C68.5076 61.6407 68.6334 61.034 68.987 61.0522C69.0709 61.0522 69.1309 61.0704 69.1728 61.1129C69.4605 61.3252 69.3167 62.035 69.3406 62.3081C69.3826 62.7509 69.4245 63.212 69.4245 63.6731C69.4245 64.1827 68.5315 64.6256 68.0341 64.4133Z" fill="#3357A2"/>
<path d="M76.3169 64.8994C76.4428 64.6022 76.6106 64.317 76.6885 64.0076C77.0421 62.6425 77.3598 61.2653 77.7014 59.8942C78.0011 58.6929 78.6603 58.1166 79.4275 58.3593C80.1887 58.6019 80.5483 59.603 80.1887 60.6768C79.919 61.4777 79.5054 62.23 79.2477 63.0369C78.7742 64.5172 78.3487 66.0097 77.9471 67.5082C77.7194 68.3516 77.2699 68.8551 76.3709 68.8612C75.5318 68.8672 74.8126 68.661 74.5369 67.7267C73.8357 65.3181 73.1165 62.9156 72.4512 60.5009C72.3553 60.149 72.4272 59.7061 72.5531 59.3542C72.7809 58.7293 73.2903 58.4199 73.9496 58.5352C74.5849 58.6444 74.8126 59.0873 74.9145 59.7365C75.1422 61.2411 75.4659 62.7335 75.7656 64.226C75.8135 64.4566 75.9633 64.6689 76.0592 64.8873C76.1491 64.8812 76.233 64.8934 76.3169 64.8994Z" fill="#3357A2"/>
<path d="M83.2452 62.941C83.9704 62.941 84.6716 62.8621 85.3369 62.9774C85.6245 63.0259 86.0621 63.4931 86.0441 63.7418C86.0201 64.0816 85.6905 64.5063 85.3728 64.6883C84.9773 64.9128 84.4439 64.8703 84.0123 65.0523C83.7306 65.1736 83.3531 65.4649 83.3231 65.7197C83.2692 66.1868 83.6527 66.3628 84.1142 66.3446C84.6716 66.3203 85.247 66.2596 85.7864 66.3628C86.098 66.4234 86.5715 66.745 86.5895 66.9877C86.6194 67.3032 86.3497 67.8128 86.0681 67.9463C85.3728 68.286 84.5997 68.4801 83.8505 68.6986C82.3881 69.1172 81.3812 68.4923 81.0876 66.9634C80.9797 66.4113 80.9258 65.841 80.9198 65.2829C80.8958 63.3596 80.9138 61.4303 80.8898 59.5071C80.8838 58.9429 81.0696 58.6941 81.6509 58.6638C82.6518 58.6031 83.6467 58.4029 84.6476 58.3908C85.1691 58.3847 85.7624 58.5485 86.1999 58.8337C86.4576 59.0035 86.6015 59.5738 86.5475 59.9257C86.5176 60.1441 86.0381 60.3443 85.7264 60.4536C85.4148 60.5567 85.0612 60.5203 84.7315 60.5749C83.1193 60.8115 82.8976 61.1634 83.2452 62.941Z" fill="#3357A2"/>
<path d="M50.9829 63.6561C50.9829 63.4559 50.9888 63.2618 50.9829 63.0616C50.9649 62.5277 51.1267 61.8421 50.863 61.5024C50.6412 61.2172 49.8801 61.4235 49.4246 61.2415C49.005 61.0777 48.4417 60.7319 48.3697 60.38C48.2978 60.022 48.6634 59.3 48.9931 59.1787C50.0838 58.7965 51.2346 58.5113 52.3853 58.3839C53.2843 58.2808 54.2193 58.4507 55.1363 58.5235C55.6037 58.5599 56.0113 58.7601 55.8615 59.3122C55.7116 59.8582 55.9693 60.7319 54.9145 60.6833C53.2244 60.6044 52.9667 60.8775 53.0685 62.5762C53.1704 64.2689 53.3023 65.9616 53.3922 67.6543C53.4401 68.5097 53.1165 68.8555 52.2774 68.8858C51.5522 68.9101 51.1986 68.4976 51.1567 67.7999C51.0728 66.4166 51.0068 65.0394 50.9289 63.6561C50.9589 63.6561 50.9709 63.6561 50.9829 63.6561Z" fill="#3357A2"/>
<path d="M89.9578 66.5966C90.5271 66.3843 90.8628 66.1537 91.1924 66.1598C91.7678 66.178 92.445 66.1901 92.8945 66.4874C93.7995 67.088 93.6557 67.7554 92.6668 68.2044C91.3782 68.7929 90.0237 68.8657 88.6452 68.7868C87.974 68.7504 87.6204 68.3924 87.6204 67.7069C87.6204 64.8493 87.6144 61.9979 87.6443 59.1464C87.6443 58.8976 87.8901 58.4669 88.0639 58.4487C88.5014 58.3941 89.0648 58.3759 89.3884 58.6125C89.718 58.8491 89.9758 59.4073 89.9937 59.8259C90.0357 61.1788 89.9338 62.5378 89.9098 63.8908C89.8978 64.7401 89.9398 65.5956 89.9578 66.5966Z" fill="#3357A2"/>
<path d="M49.2029 79.259V73.0586H51.2047C51.8699 73.0586 52.3674 73.1981 52.703 73.4772C53.0386 73.7563 53.2065 74.1688 53.2065 74.7088C53.2065 75 53.1225 75.2548 52.9607 75.4793C52.7989 75.7038 52.5771 75.8737 52.2955 75.995C52.6251 76.086 52.8888 76.268 53.0806 76.5289C53.2724 76.7898 53.3683 77.1053 53.3683 77.4693C53.3683 78.0274 53.1885 78.4643 52.8349 78.7797C52.4813 79.0952 51.9778 79.259 51.3245 79.259H49.2029ZM50.006 75.7038H51.2286C51.5822 75.7038 51.8639 75.6128 52.0737 75.4368C52.2835 75.2548 52.3914 75.0122 52.3914 74.7088C52.3914 74.3691 52.2955 74.1203 52.0977 73.9626C51.8999 73.8048 51.6002 73.732 51.1987 73.732H50.006V75.7038ZM50.006 76.359V78.5917H51.3365C51.7141 78.5917 52.0078 78.4946 52.2235 78.2944C52.4393 78.0942 52.5472 77.8272 52.5472 77.4814C52.5472 76.7352 52.1456 76.359 51.3425 76.359H50.006Z" fill="#36393B"/>
<path d="M57.2519 79.2579C57.21 79.1669 57.168 79.0031 57.1441 78.7726C56.7845 79.1548 56.3469 79.3429 55.8495 79.3429C55.4 79.3429 55.0344 79.2154 54.7467 78.9606C54.459 78.7058 54.3152 78.3782 54.3152 77.9838C54.3152 77.5046 54.495 77.1345 54.8546 76.8675C55.2142 76.6006 55.7236 76.4732 56.3769 76.4732H57.1321V76.1092C57.1321 75.8361 57.0482 75.6177 56.8863 75.4539C56.7245 75.2901 56.4848 75.2112 56.1671 75.2112C55.8914 75.2112 55.6577 75.284 55.4719 75.4236C55.2861 75.5631 55.1902 75.7391 55.1902 75.9393H54.4051C54.4051 75.7087 54.483 75.4903 54.6448 75.2719C54.8066 75.0535 55.0224 74.8897 55.2981 74.7623C55.5738 74.6349 55.8795 74.5742 56.2091 74.5742C56.7305 74.5742 57.1441 74.7077 57.4437 74.9746C57.7434 75.2416 57.8932 75.6056 57.9052 76.0728V78.1901C57.9052 78.6148 57.9592 78.9485 58.067 79.1972V79.264H57.2519V79.2579ZM55.9574 78.6573C56.2031 78.6573 56.4308 78.5905 56.6526 78.4631C56.8744 78.3357 57.0302 78.1719 57.1261 77.9656V77.0192H56.5148C55.5618 77.0192 55.0823 77.3043 55.0823 77.8686C55.0823 78.1173 55.1662 78.3115 55.3281 78.451C55.4959 78.5845 55.7056 78.6573 55.9574 78.6573Z" fill="#36393B"/>
<path d="M59.859 74.6552L59.883 75.2316C60.2306 74.7887 60.6861 74.5703 61.2435 74.5703C62.2024 74.5703 62.6879 75.1224 62.6999 76.2205V79.2661H61.9207V76.2205C61.9207 75.8868 61.8428 75.6442 61.699 75.4804C61.5491 75.3226 61.3214 75.2437 61.0097 75.2437C60.758 75.2437 60.5363 75.3105 60.3445 75.45C60.1527 75.5835 60.0028 75.7655 59.901 75.9839V79.2661H59.1218V74.6613H59.859V74.6552Z" fill="#36393B"/>
<path d="M63.6948 76.9182C63.6948 76.2023 63.8566 75.626 64.1863 75.2073C64.5159 74.7827 64.9474 74.5703 65.4928 74.5703C66.0502 74.5703 66.4817 74.7705 66.7934 75.1649L66.8294 74.6552H67.5426V79.1509C67.5426 79.7454 67.3688 80.2187 67.0211 80.5584C66.6735 80.9042 66.2001 81.0741 65.6127 81.0741C65.2831 81.0741 64.9654 81.0013 64.6478 80.8618C64.3361 80.7222 64.0964 80.5281 63.9286 80.2793L64.3301 79.8061C64.6657 80.2247 65.0733 80.431 65.5528 80.431C65.9304 80.431 66.224 80.3218 66.4398 80.1094C66.6496 79.891 66.7574 79.5877 66.7574 79.1994V78.8051C66.4458 79.1691 66.0202 79.3511 65.4808 79.3511C64.9474 79.3511 64.5159 79.1327 64.1863 78.7019C63.8566 78.259 63.6948 77.6645 63.6948 76.9182ZM64.474 77.0092C64.474 77.531 64.5818 77.9375 64.7916 78.2348C65.0014 78.532 65.2951 78.6776 65.6726 78.6776C66.1641 78.6776 66.5237 78.4532 66.7514 77.9981V75.8929C66.5117 75.4561 66.1581 75.2316 65.6786 75.2316C65.301 75.2316 65.0014 75.3772 64.7916 75.6806C64.5818 75.9778 64.474 76.4207 64.474 77.0092Z" fill="#36393B"/>
<path d="M69.5562 79.2589H68.7771V72.7188H69.5562V79.2589Z" fill="#36393B"/>
<path d="M73.6079 79.2579C73.5659 79.1669 73.53 79.0031 73.5 78.7726C73.1404 79.1548 72.7089 79.3429 72.2054 79.3429C71.7559 79.3429 71.3903 79.2154 71.1027 78.9606C70.815 78.7058 70.6711 78.3782 70.6711 77.9838C70.6711 77.5046 70.8509 77.1345 71.2105 76.8675C71.5701 76.6006 72.0796 76.4732 72.7329 76.4732H73.488V76.1092C73.488 75.8361 73.4101 75.6177 73.2423 75.4539C73.0805 75.2901 72.8407 75.2112 72.5231 75.2112C72.2474 75.2112 72.0137 75.284 71.8219 75.4236C71.6361 75.5631 71.5402 75.7391 71.5402 75.9393H70.755C70.755 75.7087 70.833 75.4903 70.9948 75.2719C71.1566 75.0596 71.3724 74.8897 71.6481 74.7623C71.9238 74.6349 72.2294 74.5742 72.5591 74.5742C73.0805 74.5742 73.494 74.7077 73.7937 74.9746C74.0934 75.2416 74.2432 75.6056 74.2552 76.0728V78.1901C74.2552 78.6148 74.3091 78.9485 74.417 79.1972V79.264H73.6079V79.2579ZM72.3193 78.6573C72.565 78.6573 72.7928 78.5905 73.0146 78.4631C73.2303 78.3357 73.3921 78.1719 73.488 77.9656V77.0192H72.8767C71.9238 77.0192 71.4443 77.3043 71.4443 77.8686C71.4443 78.1173 71.5222 78.3115 71.69 78.451C71.8518 78.5845 72.0616 78.6573 72.3193 78.6573Z" fill="#36393B"/>
<path d="M75.292 76.9171C75.292 76.2133 75.4598 75.643 75.7894 75.2123C76.1191 74.7815 76.5506 74.5692 77.09 74.5692C77.6234 74.5692 78.043 74.7512 78.3546 75.1213V72.7188H79.1337V79.2589H78.4205L78.3846 78.7675C78.0729 79.1558 77.6414 79.3439 77.084 79.3439C76.5566 79.3439 76.1251 79.1255 75.7954 78.6886C75.4658 78.2518 75.298 77.6815 75.298 76.9778V76.9171H75.292ZM76.0711 77.0081C76.0711 77.5299 76.179 77.9363 76.3888 78.2336C76.5985 78.5309 76.8982 78.6765 77.2698 78.6765C77.7613 78.6765 78.1209 78.452 78.3486 78.0031V75.8857C78.1149 75.4489 77.7613 75.2365 77.2758 75.2365C76.8922 75.2365 76.5985 75.3821 76.3828 75.6855C76.179 75.9767 76.0711 76.4196 76.0711 77.0081Z" fill="#36393B"/>
<path d="M82.2263 79.345C81.609 79.345 81.1056 79.1387 80.722 78.7322C80.3324 78.3258 80.1406 77.7737 80.1406 77.0881V76.9425C80.1406 76.4875 80.2245 76.0749 80.3983 75.717C80.5721 75.359 80.8119 75.0739 81.1235 74.8737C81.4352 74.6735 81.7708 74.5703 82.1304 74.5703C82.7238 74.5703 83.1793 74.7705 83.5089 75.1649C83.8385 75.5592 84.0004 76.1235 84.0004 76.8576V77.1852H80.9198C80.9318 77.6402 81.0636 78.0042 81.3153 78.2833C81.567 78.5624 81.8847 78.7019 82.2743 78.7019C82.55 78.7019 82.7837 78.6473 82.9695 78.532C83.1613 78.4168 83.3291 78.2651 83.4669 78.0831L83.9404 78.4592C83.5628 79.0477 82.9935 79.345 82.2263 79.345ZM82.1304 75.2134C81.8188 75.2134 81.5551 75.3287 81.3393 75.5592C81.1235 75.7898 80.9917 76.1174 80.9437 76.5299H83.2212V76.4693C83.1972 76.0689 83.0894 75.7594 82.9036 75.541C82.7118 75.3226 82.4541 75.2134 82.1304 75.2134Z" fill="#36393B"/>
<path d="M87.5545 78.0328C87.5545 77.8205 87.4766 77.6567 87.3148 77.5353C87.1589 77.42 86.8832 77.3169 86.4877 77.232C86.0921 77.147 85.7805 77.0439 85.5467 76.9286C85.313 76.8073 85.1452 76.6677 85.0373 76.5039C84.9234 76.3401 84.8695 76.146 84.8695 75.9154C84.8695 75.5393 85.0253 75.2177 85.3429 74.9569C85.6606 74.696 86.0622 74.5625 86.5536 74.5625C87.069 74.5625 87.4886 74.696 87.8062 74.969C88.1299 75.2359 88.2857 75.5818 88.2857 76.0004H87.5006C87.5006 75.782 87.4107 75.6 87.2309 75.4422C87.0511 75.2845 86.8233 75.2056 86.5476 75.2056C86.2659 75.2056 86.0442 75.2663 85.8824 75.3937C85.7205 75.5211 85.6426 75.6849 85.6426 75.8851C85.6426 76.0732 85.7145 76.2188 85.8644 76.3159C86.0142 76.4129 86.2839 76.5039 86.6675 76.5949C87.0571 76.6859 87.3687 76.7891 87.6084 76.9104C87.8482 77.0318 88.028 77.1774 88.1418 77.3533C88.2617 77.5232 88.3157 77.7355 88.3157 77.9782C88.3157 78.3908 88.1538 78.7184 87.8302 78.9671C87.5066 79.2159 87.087 79.3372 86.5656 79.3372C86.2 79.3372 85.8764 79.2705 85.6007 79.1431C85.319 79.0096 85.1032 78.8276 84.9414 78.597C84.7856 78.3604 84.7017 78.1117 84.7017 77.8387H85.4808C85.4928 78.0995 85.6007 78.3119 85.7924 78.4696C85.9902 78.6274 86.2479 78.7002 86.5656 78.7002C86.8593 78.7002 87.099 78.6395 87.2728 78.5182C87.4646 78.3968 87.5545 78.2391 87.5545 78.0328Z" fill="#36393B"/>
<path d="M90.1197 75.2062C90.4613 74.7754 90.9108 74.5631 91.4682 74.5631C92.4272 74.5631 92.9126 75.1152 92.9246 76.2133V79.2589H92.1455V76.2133C92.1455 75.8796 92.0676 75.637 91.9177 75.4732C91.7739 75.3154 91.5401 75.2365 91.2285 75.2365C90.9768 75.2365 90.755 75.3033 90.5632 75.4428C90.3714 75.5763 90.2216 75.7583 90.1197 75.9767V79.2589H89.3406V72.7188H90.1197V75.2062Z" fill="#36393B"/>
</g>
<defs>
<linearGradient id="paint0_linear_149_800" x1="31.3962" y1="42.669" x2="68.1926" y2="42.669" gradientUnits="userSpaceOnUse">
<stop stop-color="#63C3DF"/>
<stop offset="0.3555" stop-color="#63C3DF"/>
<stop offset="0.3868" stop-color="#5FBADB"/>
<stop offset="0.5472" stop-color="#4B93C7"/>
<stop offset="0.6751" stop-color="#3F7BBB"/>
<stop offset="0.7536" stop-color="#3A72B7"/>
<stop offset="1" stop-color="#3A72B7"/>
</linearGradient>
<linearGradient id="paint1_linear_149_800" x1="24.6765" y1="26.1172" x2="59.8747" y2="26.1172" gradientUnits="userSpaceOnUse">
<stop stop-color="#EA6624"/>
<stop offset="0.6295" stop-color="#F08D1A"/>
<stop offset="1" stop-color="#F08D1A"/>
</linearGradient>
<linearGradient id="paint2_linear_149_800" x1="62.9072" y1="11.7608" x2="68.9538" y2="4.27509" gradientUnits="userSpaceOnUse">
<stop stop-color="#EA6624"/>
<stop offset="0.3705" stop-color="#EA6624"/>
<stop offset="0.583" stop-color="#EB6F22"/>
<stop offset="0.928" stop-color="#EF871C"/>
<stop offset="1" stop-color="#F08D1A"/>
</linearGradient>
<linearGradient id="paint3_linear_149_800" x1="56.159" y1="5.48598" x2="68.299" y2="5.48598" gradientUnits="userSpaceOnUse">
<stop stop-color="#63C3DF"/>
<stop offset="0.3555" stop-color="#63C3DF"/>
<stop offset="0.3868" stop-color="#5FBADB"/>
<stop offset="0.5472" stop-color="#4B93C7"/>
<stop offset="0.6751" stop-color="#3F7BBB"/>
<stop offset="0.7536" stop-color="#3A72B7"/>
<stop offset="1" stop-color="#3A72B7"/>
</linearGradient>
<clipPath id="clip0_149_800">
<rect width="94" height="81" fill="white" transform="translate(0.5)"/>
</clipPath>
</defs>
</svg>
