<svg width="96" height="81" viewBox="0 0 96 81" fill="none" xmlns="http://www.w3.org/2000/svg">
<g clip-path="url(#clip0_257_695)">
<mask id="mask0_257_695" style="mask-type:luminance" maskUnits="userSpaceOnUse" x="32" y="23" width="38" height="30">
<path d="M57.775 23.8735C56.6243 26.5126 48.5452 34.4846 48.5452 34.4846L57.9188 34.3936V41.3827C49.1745 45.0714 42.8096 39.2836 42.8096 39.2836L32.9265 45.0411C51.2362 61.4522 69.7198 46.8794 69.7198 46.8794V23.8735H57.775Z" fill="white"/>
</mask>
<g mask="url(#mask0_257_695)">
<path d="M69.714 23.8735H32.9207V61.4583H69.714V23.8735Z" fill="url(#paint0_linear_257_695)"/>
</g>
<mask id="mask1_257_695" style="mask-type:luminance" maskUnits="userSpaceOnUse" x="26" y="5" width="36" height="42">
<path d="M38.5962 24.4984C39.4173 22.8421 42.3301 14.5061 56.1388 15.9076C56.1388 15.9076 53.7894 24.6561 40.2384 36.7173C40.2324 36.7112 35.6295 31.9001 38.5962 24.4984ZM45.105 6.28538C43.8764 6.59479 30.9487 9.74354 26.6574 23.8735C26.4656 24.6865 24.1222 35.6252 31.59 44.0097L28.2696 46.7035C28.5094 46.5761 40.6639 39.9752 45.6804 34.788C47.5982 33.0407 57.4753 23.9645 60.484 16.217C61.2511 13.7841 62.7495 8.40275 58.4043 6.64333C57.5233 6.38245 55.6953 5.52094 51.9674 5.52094C50.1574 5.51487 47.9099 5.71508 45.105 6.28538Z" fill="white"/>
</mask>
<g mask="url(#mask1_257_695)">
<path d="M62.7495 5.51488H24.1223V46.7035H62.7495V5.51488Z" fill="url(#paint1_linear_257_695)"/>
</g>
<mask id="mask2_257_695" style="mask-type:luminance" maskUnits="userSpaceOnUse" x="63" y="3" width="7" height="12">
<path d="M63.0552 7.6383C63.0971 7.71111 63.1451 7.78998 63.187 7.86278C63.205 7.89312 63.223 7.91738 63.241 7.94772C63.2469 7.95379 63.2529 7.96592 63.2589 7.97805C63.2829 8.01446 63.3009 8.05692 63.3249 8.09939C63.3488 8.1358 63.3668 8.17826 63.3848 8.22073C63.4028 8.2632 63.4208 8.30567 63.4447 8.34814C63.4627 8.39061 63.4807 8.43308 63.4987 8.48161C63.5226 8.53621 63.5466 8.59688 63.5646 8.65755C63.6065 8.77283 63.6425 8.8881 63.6785 9.00337C63.7264 9.16111 63.7684 9.32492 63.8043 9.48873C63.8163 9.5312 63.8223 9.57973 63.8343 9.6222C63.8463 9.6768 63.8583 9.73747 63.8643 9.79814C63.8763 9.85274 63.8822 9.90128 63.8942 9.95588C63.9062 10.0105 63.9122 10.059 63.9182 10.1136C63.9242 10.1561 63.9302 10.1986 63.9362 10.241C63.9602 10.4109 63.9781 10.5808 63.9961 10.7567C64.0021 10.8477 64.0141 10.9387 64.0201 11.0297C64.0381 11.2845 64.0501 11.5333 64.0561 11.776C64.0561 11.8245 64.062 11.867 64.062 11.9094C64.098 13.5293 63.9122 14.9126 63.9122 14.9126L69.8456 3.3429L63.0552 7.6383Z" fill="white"/>
</mask>
<g mask="url(#mask2_257_695)">
<path d="M57.4816 10.417L65.6925 -7.62939e-06L75.4137 7.85064L67.2028 18.2676L57.4816 10.417Z" fill="url(#paint2_linear_257_695)"/>
</g>
<mask id="mask3_257_695" style="mask-type:luminance" maskUnits="userSpaceOnUse" x="57" y="3" width="13" height="5">
<path d="M57.7033 3.34897C57.9011 3.42784 58.0988 3.51278 58.2846 3.59165C58.3446 3.61591 58.4105 3.64625 58.4704 3.67658C58.6322 3.74939 58.7881 3.82219 58.9319 3.90106C59.0098 3.93746 59.0877 3.97993 59.1597 4.0224C59.1657 4.02847 59.1717 4.02847 59.1776 4.03454C59.2675 4.08307 59.3574 4.13161 59.4414 4.18014C59.5253 4.22868 59.6092 4.27721 59.6931 4.32575C59.8549 4.42282 60.0107 4.51989 60.1606 4.61696C60.1785 4.6291 60.1965 4.64123 60.2085 4.6473C60.2624 4.6837 60.3224 4.7201 60.3763 4.76257C60.4482 4.81111 60.5142 4.85964 60.5861 4.90818C60.5921 4.91424 60.5981 4.91424 60.6041 4.92031C60.664 4.96278 60.7299 5.01132 60.7839 5.05378C60.9996 5.21759 61.1974 5.3814 61.3772 5.54521C61.4431 5.59981 61.5091 5.66048 61.569 5.72115C61.6409 5.78789 61.7009 5.84856 61.7668 5.91529C61.8567 6.0063 61.9466 6.0973 62.0185 6.18224C62.1803 6.35818 62.3182 6.52199 62.432 6.67366C62.462 6.71007 62.492 6.74647 62.516 6.78894C62.5699 6.86174 62.6238 6.93454 62.6658 7.00128C62.6898 7.03161 62.7077 7.06195 62.7257 7.08622C62.7437 7.11048 62.7557 7.13475 62.7677 7.15295C62.8396 7.26823 62.8935 7.35923 62.9355 7.4381C62.9774 7.50484 63.0134 7.57157 63.0554 7.63831L69.8399 3.34897H57.7033Z" fill="white"/>
</mask>
<g mask="url(#mask3_257_695)">
<path d="M69.8399 3.34897H57.7033V7.63831H69.8399V3.34897Z" fill="url(#paint3_linear_257_695)"/>
</g>
<path d="M37.1638 60.9556C36.8941 59.0687 35.3778 58.4135 33.9694 58.3286C33.2202 58.2679 32.8486 58.5166 32.6808 59.3599C32.4111 60.725 31.9556 62.0658 31.5421 63.4127C31.1046 64.7777 30.5472 66.1003 30.1516 67.4836C30.0497 67.8416 30.3194 68.5757 30.5651 68.6606C30.9367 68.788 31.5001 68.5757 31.8897 68.3451C32.1774 68.1752 32.3032 67.7566 32.531 67.4654C32.8187 67.0893 33.0884 66.6888 33.4659 66.3976C34.5627 65.4754 35.3299 65.7485 35.9112 67.071C36.121 67.5746 36.4506 68.06 36.8642 68.4118C37.0919 68.5999 37.6313 68.6667 37.919 68.515C38.1887 68.3694 38.3146 67.9083 38.4584 67.6777C38.0149 65.3177 37.4935 63.1579 37.1638 60.9556ZM33.9094 64.4137C33.1603 64.1832 33.454 63.6189 33.6397 63.1518C33.7836 62.7332 34.5328 60.6765 34.9043 61.0708C34.9883 61.1558 35.0302 61.3256 35.0722 61.5987C35.174 62.2478 35.2819 62.9212 35.2819 63.5947C35.2759 64.165 34.4489 64.5836 33.9094 64.4137Z" fill="#3357A2"/>
<path d="M28.7432 63.1154C28.5993 63.0547 28.4735 62.9698 28.3716 62.903C28.851 62.1265 29.4264 61.4773 29.7381 60.6765C30.2175 59.5237 29.756 58.6198 28.5334 58.5166C26.9991 58.3892 25.4228 58.5591 23.8646 58.644C23.7207 58.644 23.451 59.002 23.451 59.2325C23.3491 60.998 23.2832 62.7817 23.2233 64.5654C23.2053 65.2813 23.1214 66.0336 23.2652 66.7252C23.5529 68.1934 25.6506 69.3704 26.6635 68.5938C27.7603 67.7566 28.7791 66.7252 29.6062 65.615C30.4453 64.4986 30.0497 63.6371 28.7432 63.1154ZM25.8604 60.1122C26.5676 59.9242 27.3767 59.6269 27.994 60.2821C28.1199 60.4095 28.036 60.9131 27.8681 61.0769C27.5565 61.4106 27.1609 61.7078 26.7474 61.9141C25.6686 62.5208 25.3389 62.3145 25.1891 60.9677C25.4288 60.6825 25.5907 60.1729 25.8604 60.1122ZM28.2697 65.0265C27.982 65.53 27.5864 65.9911 27.107 66.3066C26.7953 66.5371 26.2559 66.6403 25.8843 66.5614C25.6985 66.5189 25.6566 65.888 25.5547 65.53C25.6566 64.3106 26.9212 63.4733 27.958 64.0618C28.1858 64.2074 28.3716 64.8141 28.2697 65.0265Z" fill="#3357A2"/>
<path d="M22.0246 60.7007C21.0057 57.9949 17.9371 57.4913 16.1151 59.7543C14.4789 61.7928 14.2092 64.1225 15.1382 66.5372C16.1151 69.1217 19.0759 69.6252 20.9038 67.5685C22.0246 66.3309 22.4381 64.8202 22.606 63.1579C22.4202 62.3388 22.3183 61.4955 22.0246 60.7007ZM19.5973 66.3916C19.4295 66.7495 18.8121 67.1499 18.4585 67.1075C18.087 67.0893 17.5655 66.5796 17.4397 66.1853C16.9182 64.3167 17.0261 62.4723 18.2068 60.8524C18.4585 60.5369 19.0339 60.179 19.3456 60.2639C19.7411 60.3671 20.1547 60.8524 20.3225 61.271C20.5922 61.9202 20.6761 62.533 20.6521 63.1154C20.5922 64.2256 20.1187 65.2995 19.5973 66.3916Z" fill="#3357A2"/>
<path d="M4.46397 63.9102V63.9041C4.49394 63.8131 4.59582 63.7646 4.68572 63.7282C5.0693 63.5886 5.48284 63.5158 5.89039 63.5219C6.27397 63.5219 6.6935 63.6068 6.93324 63.9102C7.149 64.1771 7.17297 64.5411 7.19095 64.8809C7.24489 66.0033 7.24489 67.2531 6.50172 68.0842C5.4349 69.2734 3.48106 68.9397 2.43821 67.9022C0.328545 65.8152 0.562286 60.8221 2.93566 59.0809C3.54099 58.6319 4.434 58.3771 5.18917 58.3832C6.86132 58.4014 8.16188 60.725 7.42469 62.2478C7.3288 62.442 6.89128 62.63 6.67552 62.5754C6.08817 62.4177 5.50682 62.175 5.32701 61.544C5.18917 61.0526 5.35698 60.5248 4.67374 60.4702C3.90059 60.4035 3.68483 61.083 3.45708 61.6654C2.86374 63.2125 2.68394 66.1064 4.21824 67.2167C4.27218 67.2531 4.33212 67.2955 4.39804 67.2895C4.45798 67.2895 4.50592 67.2531 4.55387 67.2167C4.91347 66.9618 5.45288 66.6282 5.50682 66.1428C5.57274 65.5422 4.81758 64.6746 4.5239 64.165C4.48794 64.0861 4.44599 63.9951 4.46397 63.9102Z" fill="#3357A2"/>
<path d="M10.9369 66.5432C11.4583 66.3551 11.8179 66.1489 12.1895 66.1185C12.633 66.0882 13.1724 66.0882 13.52 66.3127C13.8976 66.5614 14.2332 67.0528 14.3291 67.4957C14.3651 67.6777 13.7597 68.0903 13.3882 68.2602C12.1715 68.8123 10.8829 68.9882 9.5524 68.8123C8.82121 68.7152 8.47959 68.3208 8.48558 67.5625C8.49757 64.9112 8.49158 62.2599 8.49158 59.6026C8.49158 59.0323 8.42565 58.4256 9.24075 58.3346C10.0499 58.2436 10.7211 58.644 10.853 59.457C10.9608 60.1486 10.9668 60.8645 10.9489 61.5683C10.9129 62.7817 10.793 63.989 10.7571 65.2024C10.7271 65.6089 10.853 66.0215 10.9369 66.5432Z" fill="#3357A2"/>
<path d="M41.6109 66.5554C42.1503 66.3733 42.5459 66.1246 42.9295 66.1367C43.4749 66.1549 44.1162 66.2156 44.5357 66.5189C45.4407 67.1742 45.3028 67.8112 44.272 68.2177C42.9594 68.7395 41.6109 69.0246 40.1905 68.788C39.5252 68.6727 39.2136 68.2966 39.2136 67.6353C39.2196 64.8141 39.2136 61.993 39.2555 59.1719C39.2615 58.8988 39.5432 58.4135 39.711 58.4074C40.2025 58.3953 40.8258 58.4256 41.1614 58.7229C41.4791 58.9959 41.6289 59.6208 41.6349 60.094C41.6349 61.7867 41.533 63.4794 41.4911 65.1721C41.4791 65.6028 41.563 66.0397 41.6109 66.5554Z" fill="#3357A2"/>
<path d="M65.015 66.4097C64.4337 66.0336 63.8943 65.5482 63.3369 65.1478C62.7975 64.7717 62.8994 64.4562 63.253 63.9708C63.9362 63.0911 64.6434 62.1871 65.075 61.18C65.6563 59.7968 65.015 58.826 63.5586 58.4924C61.7966 58.0919 60.1185 58.638 58.4583 59.0384C58.2485 59.0809 58.0627 59.5662 58.0627 59.8332C58.0208 62.2053 58.0447 64.5775 58.0447 66.9497C57.8769 68.4846 58.0447 68.7152 59.2674 68.8365C60.0166 68.9215 60.2863 68.6485 60.2443 67.8901C60.2263 67.4047 60.2024 66.9254 60.2623 66.4401C60.3042 66.2095 60.49 65.8758 60.6998 65.8091C60.8437 65.7484 61.1793 65.9972 61.3231 66.1853C61.8206 66.792 62.2581 67.4654 62.7735 68.0539C63.3729 68.7455 63.7924 68.7455 64.4936 68.1813C64.7034 67.9932 64.9072 67.8051 65.1169 67.6171C65.5724 67.1681 65.6144 66.8102 65.015 66.4097ZM61.1193 62.9698C60.6399 63.3035 60.3522 63.0729 60.2683 62.5087C60.0405 60.7857 60.5979 59.9484 62.2401 59.9484C62.366 60.0334 62.8215 60.1608 62.9473 60.4338C63.0732 60.725 63.0073 61.271 62.8035 61.5016C62.3 62.0658 61.7187 62.5451 61.1193 62.9698Z" fill="#3357A2"/>
<path d="M73.9931 67.0407C73.6395 65.0447 73.2679 63.0547 72.8723 61.0587C72.5187 59.2143 71.4399 58.3528 69.4741 58.3286C69.0785 58.3468 68.6051 58.3104 68.4552 59.0202C68.1675 60.3246 67.8559 61.6047 67.4363 62.8606C67.0408 64.0558 66.5014 65.2146 66.0699 66.4097C65.5904 67.7748 65.6743 68.4907 66.2377 68.7213C66.9029 69.0367 67.3764 68.6363 68.2275 67.4593C68.665 66.8708 69.2643 66.3673 69.8876 66.0093C70.5709 65.6089 71.1343 65.9669 71.4459 66.6828C71.6137 67.0832 71.7576 67.52 72.0033 67.9022C72.3569 68.4664 72.9143 68.8244 73.5795 68.5514C74.2208 68.2784 74.101 67.5867 73.9931 67.0407ZM69.534 64.4137C68.8927 64.1407 69.1205 63.6371 69.3063 63.1943C69.4741 62.7756 69.6779 62.357 69.8637 61.9566C70.0075 61.6411 70.1334 61.0344 70.487 61.0526C70.5709 61.0526 70.6308 61.0708 70.6728 61.1133C70.9604 61.3256 70.8166 62.0355 70.8406 62.3085C70.8825 62.7514 70.9245 63.2125 70.9245 63.6735C70.9245 64.1832 70.0315 64.6261 69.534 64.4137Z" fill="#3357A2"/>
<path d="M77.8169 64.8991C77.9427 64.6018 78.1106 64.3166 78.1885 64.0072C78.5421 62.6422 78.8597 61.265 79.2013 59.8938C79.501 58.6926 80.1603 58.1162 80.9274 58.3589C81.6886 58.6016 82.0482 59.6026 81.6886 60.6765C81.4189 61.4773 81.0054 62.2296 80.7476 63.0365C80.2742 64.5168 79.8486 66.0093 79.4471 67.5079C79.2193 68.3512 78.7698 68.8547 77.8708 68.8608C77.0317 68.8669 76.3125 68.6606 76.0368 67.7263C75.3356 65.3177 74.6164 62.9152 73.9512 60.5005C73.8553 60.1486 73.9272 59.7057 74.053 59.3539C74.2808 58.729 74.7902 58.4196 75.4495 58.5348C76.0848 58.644 76.3125 59.0869 76.4144 59.7361C76.6422 61.2407 76.9658 62.7332 77.2655 64.2256C77.3134 64.4562 77.4633 64.6685 77.5592 64.8869C77.6491 64.8809 77.733 64.893 77.8169 64.8991Z" fill="#3357A2"/>
<path d="M84.7452 62.9395C85.4704 62.9395 86.1716 62.8606 86.8369 62.9759C87.1246 63.0244 87.5621 63.4915 87.5441 63.7403C87.5201 64.08 87.1905 64.5047 86.8729 64.6867C86.4773 64.9112 85.9439 64.8687 85.5124 65.0508C85.2307 65.1721 84.8531 65.4633 84.8231 65.7181C84.7692 66.1853 85.1528 66.3612 85.6142 66.343C86.1716 66.3187 86.747 66.2581 87.2864 66.3612C87.5981 66.4219 88.0715 66.7434 88.0895 66.9861C88.1195 67.3016 87.8498 67.8112 87.5681 67.9447C86.8729 68.2844 86.0997 68.4786 85.3505 68.697C83.8882 69.1156 82.8813 68.4907 82.5876 66.9618C82.4797 66.4098 82.4258 65.8395 82.4198 65.2813C82.3958 63.3581 82.4138 61.4288 82.3898 59.5056C82.3838 58.9413 82.5696 58.6926 83.151 58.6622C84.1519 58.6016 85.1468 58.4014 86.1477 58.3892C86.6691 58.3832 87.2624 58.547 87.6999 58.8321C87.9577 59.002 88.1015 59.5723 88.0476 59.9242C88.0176 60.1426 87.5381 60.3428 87.2265 60.452C86.9148 60.5551 86.5612 60.5187 86.2316 60.5733C84.6194 60.8099 84.3976 61.1618 84.7452 62.9395Z" fill="#3357A2"/>
<path d="M52.4829 63.6553C52.4829 63.4551 52.4889 63.261 52.4829 63.0608C52.4649 62.5269 52.6267 61.8413 52.363 61.5016C52.1413 61.2164 51.3801 61.4227 50.9246 61.2407C50.5051 61.0769 49.9417 60.7311 49.8698 60.3792C49.7979 60.0212 50.1635 59.2993 50.4931 59.1779C51.5839 58.7957 52.7346 58.5106 53.8853 58.3832C54.7844 58.28 55.7193 58.4499 56.6363 58.5227C57.1038 58.5591 57.5113 58.7593 57.3615 59.3114C57.2117 59.8574 57.4694 60.7311 56.4145 60.6825C54.7244 60.6037 54.4667 60.8767 54.5686 62.5754C54.6705 64.2681 54.8023 65.9608 54.8922 67.6535C54.9402 68.5089 54.6165 68.8547 53.7775 68.8851C53.0523 68.9093 52.6987 68.4968 52.6567 67.7991C52.5728 66.4158 52.5069 65.0386 52.429 63.6553C52.4589 63.6553 52.4709 63.6553 52.4829 63.6553Z" fill="#3357A2"/>
<path d="M91.4578 66.5978C92.0272 66.3855 92.3628 66.1549 92.6924 66.161C93.2678 66.1792 93.945 66.1913 94.3945 66.4886C95.2995 67.0892 95.1557 67.7566 94.1668 68.2056C92.8782 68.7941 91.5237 68.8669 90.1452 68.788C89.474 68.7516 89.1204 68.3936 89.1204 67.7081C89.1204 64.8505 89.1144 61.9991 89.1444 59.1476C89.1444 58.8989 89.3901 58.4681 89.5639 58.4499C90.0014 58.3953 90.5648 58.3771 90.8884 58.6137C91.2181 58.8503 91.4758 59.4085 91.4938 59.8271C91.5357 61.18 91.4338 62.539 91.4098 63.892C91.3979 64.7413 91.4398 65.5968 91.4578 66.5978Z" fill="#3357A2"/>
<path d="M50.7029 79.2596V73.0591H52.7047C53.3699 73.0591 53.8674 73.1987 54.203 73.4778C54.5386 73.7568 54.7065 74.1694 54.7065 74.7094C54.7065 75.0006 54.6225 75.2554 54.4607 75.4799C54.2989 75.7043 54.0771 75.8742 53.7955 75.9956C54.1251 76.0866 54.3888 76.2686 54.5806 76.5294C54.7724 76.7903 54.8683 77.1058 54.8683 77.4698C54.8683 78.028 54.6885 78.4648 54.3349 78.7803C53.9813 79.0958 53.4778 79.2596 52.8245 79.2596H50.7029ZM51.506 75.7043H52.7286C53.0822 75.7043 53.3639 75.6133 53.5737 75.4374C53.7835 75.2554 53.8914 75.0127 53.8914 74.7094C53.8914 74.3696 53.7955 74.1209 53.5977 73.9631C53.3999 73.8054 53.1002 73.7326 52.6987 73.7326H51.506V75.7043ZM51.506 76.3596V78.5922H52.8365C53.2141 78.5922 53.5078 78.4951 53.7235 78.2949C53.9393 78.0947 54.0472 77.8278 54.0472 77.482C54.0472 76.7357 53.6456 76.3596 52.8425 76.3596H51.506Z" fill="#36393B"/>
<path d="M58.752 79.2596C58.71 79.1686 58.6681 79.0048 58.6441 78.7742C58.2845 79.1564 57.847 79.3445 57.3495 79.3445C56.9 79.3445 56.5344 79.2171 56.2467 78.9623C55.9591 78.7075 55.8152 78.3799 55.8152 77.9855C55.8152 77.5062 55.995 77.1361 56.3546 76.8692C56.7142 76.6022 57.2237 76.4748 57.8769 76.4748H58.6321V76.1108C58.6321 75.8378 58.5482 75.6194 58.3864 75.4556C58.2246 75.2918 57.9848 75.2129 57.6672 75.2129C57.3915 75.2129 57.1577 75.2857 56.9719 75.4253C56.7861 75.5648 56.6902 75.7407 56.6902 75.9409H55.9051C55.9051 75.7104 55.983 75.492 56.1449 75.2736C56.3067 75.0552 56.5224 74.8914 56.7981 74.764C57.0738 74.6366 57.3795 74.5759 57.7091 74.5759C58.2305 74.5759 58.6441 74.7094 58.9438 74.9763C59.2434 75.2432 59.3933 75.6073 59.4052 76.0744V78.1918C59.4052 78.6165 59.4592 78.9502 59.5671 79.1989V79.2656H58.752V79.2596ZM57.4574 78.6589C57.7031 78.6589 57.9309 78.5922 58.1526 78.4648C58.3744 78.3374 58.5302 78.1736 58.6261 77.9673V77.0209H58.0148C57.0618 77.0209 56.5824 77.306 56.5824 77.8702C56.5824 78.119 56.6663 78.3131 56.8281 78.4527C56.9959 78.5861 57.2057 78.6589 57.4574 78.6589Z" fill="#36393B"/>
<path d="M61.3591 74.6547L61.3831 75.2311C61.7307 74.7882 62.1862 74.5698 62.7436 74.5698C63.7025 74.5698 64.188 75.1219 64.1999 76.22V79.2656H63.4208V76.22C63.4208 75.8863 63.3429 75.6437 63.199 75.4799C63.0492 75.3221 62.8215 75.2432 62.5098 75.2432C62.2581 75.2432 62.0363 75.31 61.8445 75.4495C61.6528 75.583 61.5029 75.765 61.401 75.9834V79.2656H60.6219V74.6608H61.3591V74.6547Z" fill="#36393B"/>
<path d="M65.1948 76.9177C65.1948 76.2018 65.3567 75.6255 65.6863 75.2068C66.0159 74.7821 66.4475 74.5698 66.9929 74.5698C67.5502 74.5698 67.9818 74.77 68.2934 75.1644L68.3294 74.6547H69.0426V79.1504C69.0426 79.7449 68.8688 80.2182 68.5212 80.5579C68.1735 80.9037 67.7001 81.0736 67.1127 81.0736C66.7831 81.0736 66.4654 81.0008 66.1478 80.8612C65.8361 80.7217 65.5964 80.5276 65.4286 80.2788L65.8301 79.8056C66.1658 80.2242 66.5733 80.4305 67.0528 80.4305C67.4304 80.4305 67.724 80.3213 67.9398 80.1089C68.1496 79.8905 68.2575 79.5872 68.2575 79.1989V78.8046C67.9458 79.1686 67.5203 79.3506 66.9809 79.3506C66.4475 79.3506 66.0159 79.1322 65.6863 78.7014C65.3567 78.2585 65.1948 77.664 65.1948 76.9177ZM65.974 77.0087C65.974 77.5305 66.0819 77.937 66.2916 78.2343C66.5014 78.5315 66.7951 78.6771 67.1727 78.6771C67.6641 78.6771 68.0237 78.4527 68.2515 77.9976V75.8924C68.0117 75.4556 67.6581 75.2311 67.1786 75.2311C66.8011 75.2311 66.5014 75.3767 66.2916 75.6801C66.0819 75.9773 65.974 76.4202 65.974 77.0087Z" fill="#36393B"/>
<path d="M71.0564 79.2596H70.2772V72.7194H71.0564V79.2596Z" fill="#36393B"/>
<path d="M75.1079 79.2596C75.0659 79.1686 75.03 79.0048 75 78.7742C74.6404 79.1564 74.2089 79.3445 73.7054 79.3445C73.2559 79.3445 72.8903 79.2171 72.6027 78.9623C72.315 78.7075 72.1711 78.3799 72.1711 77.9855C72.1711 77.5062 72.3509 77.1361 72.7105 76.8692C73.0701 76.6022 73.5796 76.4748 74.2328 76.4748H74.988V76.1108C74.988 75.8378 74.9101 75.6194 74.7423 75.4556C74.5805 75.2918 74.3407 75.2129 74.0231 75.2129C73.7474 75.2129 73.5136 75.2857 73.3219 75.4253C73.1361 75.5648 73.0402 75.7407 73.0402 75.9409H72.255C72.255 75.7104 72.3329 75.492 72.4948 75.2736C72.6566 75.0612 72.8723 74.8914 73.148 74.764C73.4237 74.6366 73.7294 74.5759 74.059 74.5759C74.5805 74.5759 74.994 74.7094 75.2937 74.9763C75.5933 75.2432 75.7432 75.6073 75.7552 76.0744V78.1918C75.7552 78.6165 75.8091 78.9502 75.917 79.1989V79.2656H75.1079V79.2596ZM73.8193 78.6589C74.065 78.6589 74.2928 78.5922 74.5145 78.4648C74.7303 78.3374 74.8921 78.1736 74.988 77.9673V77.0209H74.3767C73.4237 77.0209 72.9443 77.306 72.9443 77.8702C72.9443 78.119 73.0222 78.3131 73.19 78.4527C73.3518 78.5861 73.5616 78.6589 73.8193 78.6589Z" fill="#36393B"/>
<path d="M76.792 76.9177C76.792 76.214 76.9598 75.6437 77.2895 75.2129C77.6191 74.7822 78.0506 74.5698 78.59 74.5698C79.1234 74.5698 79.543 74.7518 79.8546 75.1219V72.7194H80.6338V79.2596H79.9205L79.8846 78.7682C79.5729 79.1564 79.1414 79.3445 78.584 79.3445C78.0566 79.3445 77.6251 79.1261 77.2955 78.6893C76.9658 78.2525 76.798 77.6822 76.798 76.9784V76.9177H76.792ZM77.5711 77.0087C77.5711 77.5305 77.679 77.937 77.8888 78.2343C78.0986 78.5315 78.3982 78.6771 78.7698 78.6771C79.2613 78.6771 79.6209 78.4527 79.8486 78.0037V75.8863C79.6149 75.4495 79.2613 75.2372 78.7758 75.2372C78.3922 75.2372 78.0986 75.3828 77.8828 75.6861C77.679 75.9773 77.5711 76.4202 77.5711 77.0087Z" fill="#36393B"/>
<path d="M83.7263 79.3445C83.109 79.3445 82.6056 79.1382 82.222 78.7317C81.8324 78.3253 81.6407 77.7732 81.6407 77.0876V76.942C81.6407 76.487 81.7246 76.0744 81.8984 75.7165C82.0722 75.3585 82.3119 75.0734 82.6236 74.8732C82.9352 74.6729 83.2708 74.5698 83.6304 74.5698C84.2238 74.5698 84.6793 74.77 85.0089 75.1644C85.3386 75.5587 85.5004 76.1229 85.5004 76.8571V77.1847H82.4198C82.4318 77.6397 82.5636 78.0037 82.8154 78.2828C83.0671 78.5619 83.3847 78.7014 83.7743 78.7014C84.05 78.7014 84.2837 78.6468 84.4695 78.5315C84.6613 78.4163 84.8291 78.2646 84.967 78.0826L85.4404 78.4587C85.0629 79.0472 84.4935 79.3445 83.7263 79.3445ZM83.6304 75.2129C83.3188 75.2129 83.0551 75.3282 82.8393 75.5587C82.6236 75.7893 82.4917 76.1169 82.4438 76.5294H84.7212V76.4688C84.6973 76.0683 84.5894 75.7589 84.4036 75.5405C84.2118 75.3221 83.9541 75.2129 83.6304 75.2129Z" fill="#36393B"/>
<path d="M89.0544 78.0341C89.0544 77.8217 88.9765 77.6579 88.8147 77.5366C88.6589 77.4213 88.3832 77.3182 87.9876 77.2332C87.5921 77.1483 87.2804 77.0451 87.0467 76.9299C86.8129 76.8085 86.6451 76.669 86.5372 76.5052C86.4234 76.3414 86.3694 76.1472 86.3694 75.9167C86.3694 75.5405 86.5252 75.219 86.8429 74.9581C87.1605 74.6972 87.5621 74.5638 88.0535 74.5638C88.569 74.5638 88.9885 74.6972 89.3062 74.9702C89.6298 75.2372 89.7856 75.583 89.7856 76.0016H89.0005C89.0005 75.7832 88.9106 75.6012 88.7308 75.4435C88.551 75.2857 88.3233 75.2068 88.0476 75.2068C87.7659 75.2068 87.5441 75.2675 87.3823 75.3949C87.2205 75.5223 87.1426 75.6861 87.1426 75.8863C87.1426 76.0744 87.2145 76.22 87.3643 76.3171C87.5141 76.4142 87.7838 76.5052 88.1674 76.5962C88.557 76.6872 88.8686 76.7903 89.1084 76.9117C89.3481 77.033 89.5279 77.1786 89.6418 77.3546C89.7617 77.5244 89.8156 77.7368 89.8156 77.9795C89.8156 78.392 89.6538 78.7196 89.3301 78.9684C89.0065 79.2171 88.587 79.3384 88.0655 79.3384C87.6999 79.3384 87.3763 79.2717 87.1006 79.1443C86.8189 79.0108 86.6032 78.8288 86.4413 78.5983C86.2855 78.3617 86.2016 78.1129 86.2016 77.8399H86.9807C86.9927 78.1008 87.1006 78.3131 87.2924 78.4709C87.4902 78.6286 87.7479 78.7014 88.0655 78.7014C88.3592 78.7014 88.5989 78.6408 88.7728 78.5194C88.9645 78.3981 89.0544 78.2403 89.0544 78.0341Z" fill="#36393B"/>
<path d="M91.6196 75.2068C91.9612 74.7761 92.4107 74.5637 92.9681 74.5637C93.9271 74.5637 94.4125 75.1158 94.4245 76.214V79.2596H93.6454V76.214C93.6454 75.8803 93.5675 75.6376 93.4176 75.4738C93.2738 75.3161 93.04 75.2372 92.7284 75.2372C92.4767 75.2372 92.2549 75.3039 92.0631 75.4435C91.8713 75.5769 91.7215 75.7589 91.6196 75.9774V79.2596H90.8405V72.7194H91.6196V75.2068Z" fill="#36393B"/>
</g>
<defs>
<linearGradient id="paint0_linear_257_695" x1="32.8961" y1="42.6675" x2="69.6924" y2="42.6675" gradientUnits="userSpaceOnUse">
<stop stop-color="#63C3DF"/>
<stop offset="0.3555" stop-color="#63C3DF"/>
<stop offset="0.3868" stop-color="#5FBADB"/>
<stop offset="0.5472" stop-color="#4B93C7"/>
<stop offset="0.6751" stop-color="#3F7BBB"/>
<stop offset="0.7536" stop-color="#3A72B7"/>
<stop offset="1" stop-color="#3A72B7"/>
</linearGradient>
<linearGradient id="paint1_linear_257_695" x1="26.1764" y1="26.1165" x2="61.3747" y2="26.1165" gradientUnits="userSpaceOnUse">
<stop stop-color="#EA6624"/>
<stop offset="0.6295" stop-color="#F08D1A"/>
<stop offset="1" stop-color="#F08D1A"/>
</linearGradient>
<linearGradient id="paint2_linear_257_695" x1="64.4071" y1="11.7608" x2="70.4536" y2="4.27508" gradientUnits="userSpaceOnUse">
<stop stop-color="#EA6624"/>
<stop offset="0.3705" stop-color="#EA6624"/>
<stop offset="0.583" stop-color="#EB6F22"/>
<stop offset="0.928" stop-color="#EF871C"/>
<stop offset="1" stop-color="#F08D1A"/>
</linearGradient>
<linearGradient id="paint3_linear_257_695" x1="57.659" y1="5.48338" x2="69.7989" y2="5.48338" gradientUnits="userSpaceOnUse">
<stop stop-color="#63C3DF"/>
<stop offset="0.3555" stop-color="#63C3DF"/>
<stop offset="0.3868" stop-color="#5FBADB"/>
<stop offset="0.5472" stop-color="#4B93C7"/>
<stop offset="0.6751" stop-color="#3F7BBB"/>
<stop offset="0.7536" stop-color="#3A72B7"/>
<stop offset="1" stop-color="#3A72B7"/>
</linearGradient>
<clipPath id="clip0_257_695">
<rect width="96" height="81" fill="white"/>
</clipPath>
</defs>
</svg>
